<?xml version="1.0" encoding="UTF-8" standalone="no"?>
<!-- Created with Inkscape (http://www.inkscape.org/) -->

<svg
   version="1.1"
   id="svg2"
   width="42.702759"
   height="17.908855"
   viewBox="0 0 42.702759 17.908855"
   sodipodi:docname="fibl-logo.svg"
   inkscape:version="1.4 (e7c3feb, 2024-10-09)"
   xml:space="preserve"
   inkscape:export-filename="fibl-logo.png"
   inkscape:export-xdpi="899.23932"
   inkscape:export-ydpi="899.23932"
   xmlns:inkscape="http://www.inkscape.org/namespaces/inkscape"
   xmlns:sodipodi="http://sodipodi.sourceforge.net/DTD/sodipodi-0.dtd"
   xmlns="http://www.w3.org/2000/svg"
   xmlns:svg="http://www.w3.org/2000/svg"
   xmlns:rdf="http://www.w3.org/1999/02/22-rdf-syntax-ns#"
   xmlns:cc="http://creativecommons.org/ns#"
   xmlns:dc="http://purl.org/dc/elements/1.1/"><metadata
     id="metadata8"><rdf:RDF><cc:Work
         rdf:about=""><dc:format>image/svg+xml</dc:format><dc:type
           rdf:resource="http://purl.org/dc/dcmitype/StillImage" /><dc:title /></cc:Work></rdf:RDF></metadata><defs
     id="defs6" /><sodipodi:namedview
     pagecolor="#ffffff"
     bordercolor="#666666"
     borderopacity="1"
     objecttolerance="10"
     gridtolerance="10"
     guidetolerance="10"
     inkscape:pageopacity="0"
     inkscape:pageshadow="2"
     inkscape:window-width="1920"
     inkscape:window-height="1011"
     id="namedview4"
     showgrid="false"
     inkscape:zoom="12.187897"
     inkscape:cx="-0.94355902"
     inkscape:cy="22.604392"
     inkscape:window-x="0"
     inkscape:window-y="0"
     inkscape:window-maximized="1"
     inkscape:current-layer="svg2"
     fit-margin-top="0"
     fit-margin-left="0"
     fit-margin-right="0"
     fit-margin-bottom="0"
     inkscape:showpageshadow="2"
     inkscape:pagecheckerboard="0"
     inkscape:deskcolor="#d1d1d1" /><g
     inkscape:label="Calque 1"
     id="layer1"
     transform="matrix(0.06561023,0,0,0.06561023,-4.4573118,-4.6927793)"><g
       aria-label="A"
       transform="matrix(-0.8565209,-0.123065,0.09130999,-1.1543944,0,0)"
       id="text2985"
       style="line-height:0%;font-family:Christopherhand;-inkscape-font-specification:Christopherhand;letter-spacing:0px;word-spacing:0px;fill:#46626a"><path
         d="m -187.02641,-252.94694 q 20.62076,0 35.56334,45.27601 l 1.64368,1.34483 v 1.34484 l -1.64368,7.91956 q 4.33334,0 7.77014,14.64373 6.12645,4.03449 13.89659,4.03449 l 1.49426,1.34484 v 1.34483 q 0,2.68966 -7.62071,2.68966 v 1.19541 l 2.98851,10.75865 -1.49426,-1.34483 h -1.49425 v 2.68967 h 1.49425 l 1.49426,-1.34484 h 1.64369 q 1.7931,11.95407 4.63219,11.95407 l -1.64368,1.34483 v 2.68966 h 1.64368 v -2.68966 h 2.98852 l 6.27588,15.98856 -1.49426,1.34483 q 4.0345,0 7.62072,6.57473 l -1.49426,1.34483 v 1.34484 q 9.2644,8.96554 9.2644,20.02305 l -7.77014,10.60923 h -2.98852 q -21.36788,-5.379328 -21.66673,-9.264398 13.89659,-2.988512 13.89659,-5.379332 0,-5.08047 -27.79319,-58.5749 -2.39081,0 -4.6322,-5.37933 -9.41382,0 -9.41382,4.0345 l -1.49426,-1.34483 h -1.49426 l -6.27588,5.37932 -1.49426,-1.34483 h -1.49426 q -13.44832,2.68967 -21.66673,7.91957 l -4.6322,-1.34483 q -2.54024,3.58622 -20.17248,10.75865 l -7.77014,19.87363 1.64368,1.34483 h 1.49426 l -4.6322,8.06899 1.49426,1.34484 v 1.34483 q -4.6322,18.080517 -9.2644,22.56329 0,3.88507 -2.98852,3.88507 l 4.6322,21.367886 -7.77014,4.034496 q -12.40234,-1.04598 -12.40234,-9.413824 0,-13.597745 7.77014,-42.436918 -30.93113,-2.24139 -30.93113,-17.33339 v -2.68967 q 11.50578,-8.06899 44.82773,-24.05755 28.54032,-95.78192 49.45993,-95.78192 z m 3.13794,15.98856 -18.52879,23.90812 1.49425,1.34484 v 1.34483 l -1.49425,1.34483 h -1.64369 l -1.49426,-1.34483 v 1.34483 l 1.49426,5.37933 h -1.49426 l 1.49426,1.34483 v 2.54024 l -2.98851,2.68966 v -6.57473 h -1.64369 l -4.6322,14.64372 v 1.34484 h 1.64369 v -2.68967 h 1.49426 v 2.68967 q -1.49426,7.91956 -4.6322,7.91956 l -1.49426,-1.34483 1.49426,9.2644 v 6.72416 l 23.16099,-6.72416 1.64369,1.34483 h 1.49425 l 21.66674,-6.57473 4.6322,1.34483 1.49426,-1.34483 1.49426,1.34483 1.64368,-1.34483 v -1.34484 q 0,-11.35635 -24.80468,-58.5749 z m -69.63241,110.42565 v 2.68966 h 7.77014 l 1.49426,-7.91956 h -1.49426 z"
         style="font-size:306.024px;line-height:1.25"
         id="path918" /></g><g
       aria-label="Antikor "
       id="text2992"
       style="line-height:0%;font-family:'Times Sans Serif';-inkscape-font-specification:'Times Sans Serif';letter-spacing:0px;word-spacing:0px;fill:#46626a"><path
         d="m 290.11761,109.23415 h 2.57652 l 45.86199,102.10365 h -18.62454 l -3.16543,-8.53931 q -0.5153,-1.4723 -4.34327,-10.52691 l -6.03641,-14.35488 h -38.64774 l -14.42849,33.4211 h -7.43509 z m 14.20765,63.23506 -16.93139,-40.34088 -17.37308,40.34088 z"
         style="font-size:150.763px;line-height:1.25"
         id="path921" /><path
         d="m 370.65215,156.20035 q 11.85197,-14.28126 22.59973,-14.28126 11.41028,0 15.82717,11.85198 1.61952,4.34327 1.61952,13.54511 v 28.78337 l 0.0736,15.23825 h -12.22005 v -42.84378 q 0,-17.52031 -10.4533,-17.52031 -8.76015,0 -17.44669,9.56991 l -0.0736,50.79418 h -12.07281 v -40.26727 l 0.0736,-29.15144 h 12.07282 z"
         style="font-size:150.763px;line-height:1.25"
         id="path923" /><path
         d="m 445.96004,121.74865 v 22.15804 h 15.75356 v 5.15303 h -15.75356 v 43.72716 q 0,11.11583 6.69894,11.11583 5.74195,0 8.24486,-5.96279 h 2.87097 q -5.15303,14.5021 -17.00501,14.5021 -8.17123,0 -11.41028,-7.28786 -1.54591,-3.45989 -1.54591,-10.74775 v -45.34669 h -10.67414 v -5.15303 h 10.60052 v -22.15804 z"
         style="font-size:150.763px;line-height:1.25"
         id="path925" /><path
         d="m 485.41753,106.65763 q 3.09182,0 5.22665,2.20844 2.20844,2.13483 2.20844,5.22665 0,3.09182 -2.20844,5.30026 -2.13483,2.20844 -5.22665,2.20844 -3.09181,0 -5.30026,-2.20844 -2.20844,-2.20844 -2.20844,-5.30026 0,-3.16543 2.13483,-5.30026 2.20844,-2.13483 5.37387,-2.13483 z m 6.11003,35.26146 0.0736,69.41871 -12.29366,0.22084 v -69.93401 l 8.981,0.29446 z"
         style="font-size:150.763px;line-height:1.25"
         id="path927" /><path
         d="m 530.10171,106.65763 v 67.13665 l 31.50711,-29.81397 h 8.24485 l -27.75276,26.13323 33.20025,41.4451 h -14.20765 l -30.9918,-37.76436 0.0736,37.54352 h -12.29366 v -14.79656 l -0.0736,-89.66277 z"
         style="font-size:150.763px;line-height:1.25"
         id="path929" /><path
         d="m 618.51299,141.91909 q 15.31186,0 24.58732,11.63113 7.87678,9.93799 7.87678,22.82057 0,9.34908 -4.26966,18.18285 -4.4905,9.4963 -12.07282,14.20764 -7.58231,4.63773 -16.93139,4.63773 -15.23825,0 -24.21925,-12.14643 -7.58232,-10.23245 -7.58232,-22.9678 0,-9.27546 4.41689,-18.10923 4.71134,-9.42269 12.22005,-13.83957 7.58231,-4.41689 15.9744,-4.41689 z m -2.28206,4.78496 q -9.86438,0 -14.20765,10.4533 -2.42928,5.81556 -2.42928,14.94379 0,12.51451 4.49049,22.74696 5.81557,13.32426 16.78417,13.32426 16.41609,0 16.41609,-26.13323 0,-17.88838 -7.72955,-28.26806 -5.30026,-7.06702 -13.32427,-7.06702 z"
         style="font-size:150.763px;line-height:1.25"
         id="path931" /><path
         d="m 680.64386,142.50801 v 14.57572 q 8.4657,-14.57572 16.78416,-14.42849 6.69895,0.29446 10.01161,10.67414 l -5.37388,4.12242 q -2.28205,-4.34327 -4.78496,-5.74195 -2.5029,-1.39868 -5.37387,-0.58891 -2.79736,0.73614 -4.41689,2.20844 -3.38628,3.09182 -6.84617,9.93799 v 32.31687 l -0.14723,15.4591 h -11.92559 l -0.0736,-14.87018 v -26.13323 q 0,-10.08522 0,-27.38469 z"
         style="font-size:150.763px;line-height:1.25"
         id="path933" /></g><g
       aria-label="vétérinaires"
       transform="scale(1.0409336,0.96067607)"
       id="text2998"
       style="line-height:0%;font-family:'Times Sans Serif';-inkscape-font-specification:'Times Sans Serif';letter-spacing:0px;word-spacing:0px;fill:#2ea0a9"><path
         d="m 211.66753,279.73007 h 6.422 l 9.65017,23.9022 9.40977,-23.9022 2.78172,-0.0343 -13.18742,32.45341 h -1.40803 z"
         style="font-size:70.3329px;line-height:1.25;letter-spacing:12.3193px"
         id="path936" /><path
         d="m 262.99961,291.57814 q -0.0343,5.83818 2.71303,10.06228 3.19383,4.91094 8.75728,4.91094 6.38765,0 9.20371,-7.52095 l 1.06461,0.68684 q -0.78987,5.08265 -4.22409,8.61991 -3.67462,3.81198 -8.65424,3.81198 -6.422,0 -10.26833,-5.04831 -3.46857,-4.60185 -3.46857,-11.22991 0,-7.24621 3.57159,-11.91675 3.94936,-5.18568 10.95518,-5.18568 5.56344,0 8.86029,3.67462 3.22817,3.53725 3.22817,9.13503 z m 0,-1.99185 h 14.56111 q -0.17171,-3.02211 -0.72119,-4.25843 -1.82014,-4.12107 -6.11292,-4.12107 -3.29685,0 -5.46041,2.61001 -1.92317,2.33527 -2.26659,5.76949 z m 16.38125,-26.13444 -10.13096,11.84807 h -1.16764 l 3.60593,-11.84807 z"
         style="font-size:70.3329px;line-height:1.25;letter-spacing:12.3193px"
         id="path938" /><path
         d="m 310.38233,269.39306 v 10.33701 h 7.34924 v 2.40396 h -7.34924 v 20.39929 q 0,5.18568 3.12514,5.18568 2.6787,0 3.84633,-2.78173 h 1.33935 q -2.40395,6.76542 -7.93305,6.76542 -3.81199,0 -5.32305,-3.39988 -0.72119,-1.61408 -0.72119,-5.01396 v -21.15482 h -4.97962 v -2.40396 h 4.94528 v -10.33701 z"
         style="font-size:70.3329px;line-height:1.25;letter-spacing:12.3193px"
         id="path940" /><path
         d="m 338.39603,291.57814 q -0.0343,5.83818 2.71304,10.06228 3.19383,4.91094 8.75727,4.91094 6.38765,0 9.20372,-7.52095 l 1.06461,0.68684 q -0.78987,5.08265 -4.2241,8.61991 -3.67462,3.81198 -8.65424,3.81198 -6.422,0 -10.26833,-5.04831 -3.46857,-4.60185 -3.46857,-11.22991 0,-7.24621 3.5716,-11.91675 3.94935,-5.18568 10.95517,-5.18568 5.56344,0 8.8603,3.67462 3.22817,3.53725 3.22817,9.13503 z m 0,-1.99185 h 14.56111 q -0.17171,-3.02211 -0.72119,-4.25843 -1.82014,-4.12107 -6.11292,-4.12107 -3.29685,0 -5.46041,2.61001 -1.92317,2.33527 -2.26659,5.76949 z m 16.38125,-26.13444 -10.13096,11.84807 h -1.16764 l 3.60594,-11.84807 z"
         style="font-size:70.3329px;line-height:1.25;letter-spacing:12.3193px"
         id="path942" /><path
         d="m 385.84744,279.07757 v 6.79976 q 3.94936,-6.79976 7.83003,-6.73108 3.12514,0.13737 4.67054,4.97963 l -2.50698,1.92316 q -1.06461,-2.02619 -2.23225,-2.67869 -1.16763,-0.6525 -2.50698,-0.27474 -1.305,0.34342 -2.06053,1.03027 -1.57975,1.44237 -3.19383,4.6362 v 15.07624 l -0.0687,7.21187 h -5.56344 l -0.0343,-6.93713 v -12.19149 q 0,-4.70489 0,-12.77532 z"
         style="font-size:70.3329px;line-height:1.25;letter-spacing:12.3193px"
         id="path944" /><path
         d="m 420.38617,262.3529 q 1.44237,0 2.4383,1.03027 1.03026,0.99592 1.03026,2.4383 0,1.44237 -1.03026,2.47264 -0.99593,1.03026 -2.4383,1.03026 -1.44238,0 -2.47264,-1.03026 -1.03027,-1.03027 -1.03027,-2.47264 0,-1.47672 0.99592,-2.47264 1.03027,-0.99593 2.50699,-0.99593 z m 2.8504,16.44993 0.0344,32.38473 -5.73516,0.10303 v -32.62513 l 4.18976,0.13737 z"
         style="font-size:70.3329px;line-height:1.25;letter-spacing:12.3193px"
         id="path946" /><path
         d="m 453.41383,285.46523 q 5.52911,-6.6624 10.54307,-6.6624 5.32305,0 7.38358,5.5291 0.75553,2.02619 0.75553,6.31897 v 13.42782 l 0.0343,7.10884 h -5.70081 v -19.98718 q 0,-8.17345 -4.87659,-8.17345 -4.08673,0 -8.13912,4.46449 l -0.0343,23.69614 h -5.63212 v -18.7852 l 0.0343,-13.59953 h 5.63212 z"
         style="font-size:70.3329px;line-height:1.25;letter-spacing:12.3193px"
         id="path948" /><path
         d="m 509.55384,306.65439 q -4.8766,3.77764 -6.07857,4.32712 -1.85448,0.85855 -3.94936,0.85855 -3.43422,0 -5.49476,-2.36961 -1.99185,-2.26659 -1.99185,-5.73515 0,-4.8766 5.94121,-8.37951 3.46856,-2.06053 11.57333,-5.01397 v -1.23632 q 0,-3.84633 -0.99592,-5.70081 -1.37369,-2.50698 -3.9837,-2.81606 -2.61001,-0.30908 -5.01397,0.72119 -2.40396,1.03026 -2.47264,5.73515 h -2.54133 q 0.10303,-5.22002 2.74738,-6.73108 2.6787,-1.5454 7.45227,-1.51106 7.86437,0 9.85622,4.73923 0.61816,1.47672 0.61816,6.04423 v 10.68044 l 0.20605,11.50465 h -5.73515 z m 0,-2.23225 V 292.4367 q -5.11699,2.02619 -6.69673,2.91909 -5.04831,2.81606 -5.04831,6.76542 0,2.23225 1.305,3.91502 1.40803,1.82013 3.57159,1.82013 2.61001,0 6.86845,-3.43422 z"
         style="font-size:70.3329px;line-height:1.25;letter-spacing:12.3193px"
         id="path950" /><path
         d="m 543.26834,262.3529 q 1.44237,0 2.4383,1.03027 1.03027,0.99592 1.03027,2.4383 0,1.44237 -1.03027,2.47264 -0.99593,1.03026 -2.4383,1.03026 -1.44237,0 -2.47264,-1.03026 -1.03027,-1.03027 -1.03027,-2.47264 0,-1.47672 0.99593,-2.47264 1.03026,-0.99593 2.50698,-0.99593 z m 2.85041,16.44993 0.0343,32.38473 -5.73516,0.10303 v -32.62513 l 4.18976,0.13737 z"
         style="font-size:70.3329px;line-height:1.25;letter-spacing:12.3193px"
         id="path952" /><path
         d="m 576.33036,279.07757 v 6.79976 q 3.94936,-6.79976 7.83003,-6.73108 3.12515,0.13737 4.67055,4.97963 l -2.50699,1.92316 q -1.0646,-2.02619 -2.23224,-2.67869 -1.16764,-0.6525 -2.50698,-0.27474 -1.30501,0.34342 -2.06054,1.03027 -1.57974,1.44237 -3.19383,4.6362 v 15.07624 l -0.0687,7.21187 h -5.56344 l -0.0343,-6.93713 v -12.19149 q 0,-4.70489 0,-12.77532 z"
         style="font-size:70.3329px;line-height:1.25;letter-spacing:12.3193px"
         id="path954" /><path
         d="m 608.15604,291.57814 q -0.0343,5.83818 2.71304,10.06228 3.19383,4.91094 8.75727,4.91094 6.38765,0 9.20372,-7.52095 l 1.06461,0.68684 q -0.78987,5.08265 -4.2241,8.61991 -3.67462,3.81198 -8.65424,3.81198 -6.422,0 -10.26833,-5.04831 -3.46857,-4.60185 -3.46857,-11.22991 0,-7.24621 3.5716,-11.91675 3.94935,-5.18568 10.95517,-5.18568 5.56344,0 8.8603,3.67462 3.22817,3.53725 3.22817,9.13503 z m 0,-1.99185 h 14.56111 q -0.17171,-3.02211 -0.72119,-4.25843 -1.82014,-4.12107 -6.11292,-4.12107 -3.29685,0 -5.46041,2.61001 -1.92317,2.33527 -2.26659,5.76949 z"
         style="font-size:70.3329px;line-height:1.25;letter-spacing:12.3193px"
         id="path956" /><path
         d="m 665.42934,288.52168 q -0.85855,-5.08265 -3.39988,-6.55936 -2.40395,-1.44238 -4.97962,-1.33935 -2.19791,0.10303 -3.84633,1.40803 -1.82014,1.47672 -1.82014,3.57159 0,1.47672 1.03027,2.74738 0.78987,0.85856 2.50698,2.06054 1.71711,1.16763 4.46449,2.64435 1.92316,1.03027 3.15949,1.71711 1.23632,0.68685 1.75145,1.06461 2.74738,1.88882 3.81199,3.9837 0.8929,1.75145 0.8929,3.67462 0,3.9837 -3.09081,6.59371 -2.88474,2.33527 -7.04015,2.33527 -1.40804,0 -2.54133,-0.10303 -1.47672,-0.20605 -3.29685,-1.03026 -0.85856,-0.41211 -1.71712,-1.20198 -0.85855,-0.82421 -1.71711,-2.09488 -1.71711,-2.4383 -1.71711,-6.73108 h 1.47672 q 0,3.29686 0.82421,4.8766 0.58382,0.99593 1.44237,1.85448 0.85856,0.85856 2.06054,1.44238 2.09487,1.16763 4.67054,1.16763 1.30501,0 2.40396,-0.34342 1.09895,-0.34342 1.99185,-0.99592 1.99185,-1.40804 1.99185,-3.94936 0,-2.61001 -2.64435,-4.6362 -0.82422,-0.65251 -2.19791,-1.47672 -1.33934,-0.82421 -3.22817,-1.85448 -1.88882,-0.99593 -3.26251,-1.85448 -1.37369,-0.85856 -2.23224,-1.5454 -1.82014,-1.40803 -2.6787,-3.05646 -0.85856,-1.64843 -0.85856,-3.60594 0,-3.77764 2.85041,-6.1816 2.71304,-2.30093 6.55937,-2.30093 2.16356,0.13737 3.70896,0.54948 1.5454,0.4121 2.40396,1.16763 1.78579,1.40804 2.57566,3.19383 0.51514,1.1333 0.78987,2.33527 0.27474,1.20198 0.34343,2.47264 z"
         style="font-size:70.3329px;line-height:1.25;letter-spacing:12.3193px"
         id="path958" /></g><g
       aria-label="scop"
       id="text3164"
       style="font-size:40px;font-family:Roboto;-inkscape-font-specification:Roboto;text-orientation:upright;opacity:0.747618;fill:#e9d45d;stroke:#46626a;stroke-width:0.9375"><path
         d="m 216.58466,241.50555 q 0.33203,-1.93359 -2.51954,-2.67578 -2.83203,-0.76172 -3.86718,-1.21093 -4.02344,-1.71875 -3.88672,-5.23438 0.0977,-2.85156 2.57812,-4.70703 2.5,-1.875 5.97657,-1.83594 3.35937,0.0391 5.46875,1.89453 2.1289,1.85547 2.08984,4.86328 l -4.58984,-0.0195 q 0.0391,-1.46484 -0.80079,-2.28515 -0.83984,-0.83985 -2.30468,-0.87891 -1.54297,0 -2.65625,0.76172 -1.09375,0.76172 -1.26953,1.99219 -0.27344,1.77734 2.5,2.48047 2.77343,0.68359 4.10156,1.26953 3.86719,1.69922 3.73047,5.3125 -0.0977,2.01172 -1.32813,3.51562 -1.21094,1.48438 -3.26172,2.28516 -2.05078,0.78125 -4.35547,0.72265 -3.45703,-0.0391 -5.74218,-2.01171 -2.26563,-1.97266 -2.22657,-5.0586 l 4.47266,0.0195 q 0.0391,1.69922 1.01563,2.57813 0.97656,0.8789 2.67578,0.89844 1.71875,0 2.85156,-0.70313 1.15234,-0.72266 1.34766,-1.97266 z"
         style="font-style:italic;font-weight:500;-inkscape-font-specification:'Roboto Medium Italic'"
         id="path961" /><path
         d="m 233.38153,243.98602 q 1.66016,0.0391 2.92969,-0.95703 1.28906,-1.01562 1.64062,-2.63672 l 4.375,-0.0195 q -0.21484,2.08985 -1.52343,3.8086 -1.28907,1.71875 -3.32032,2.67578 -2.03125,0.95703 -4.23828,0.89843 -2.71484,-0.0391 -4.6289,-1.40625 -1.91407,-1.36718 -2.79297,-3.76953 -0.87891,-2.42187 -0.58594,-5.39062 l 0.0586,-0.6836 q 0.33203,-3.0664 1.77735,-5.54687 1.46484,-2.5 3.76953,-3.84766 2.30469,-1.34765 5.11719,-1.26953 3.4375,0.0781 5.48828,2.28516 2.05078,2.1875 2.05078,5.70312 h -4.33594 q 0,-1.8164 -0.89844,-2.96875 -0.8789,-1.15234 -2.55859,-1.23047 -2.71484,-0.0781 -4.27734,2.30469 -1.5625,2.38281 -1.67969,6.71875 -0.13672,5.25391 3.63281,5.33203 z"
         style="font-style:italic;font-weight:500;-inkscape-font-specification:'Roboto Medium Italic'"
         id="path963" /><path
         d="m 245.78387,236.7204 q 0.33204,-3.10547 1.81641,-5.64453 1.50391,-2.53907 3.84766,-3.92578 2.34375,-1.38672 5.19531,-1.3086 2.71484,0.0391 4.6875,1.44531 1.97266,1.40625 2.87109,3.84766 0.91797,2.44141 0.64453,5.42969 -0.3125,3.35937 -1.83593,5.9375 -1.50391,2.57812 -3.86719,3.96484 -2.34375,1.36719 -5.21484,1.28906 -2.69532,-0.0391 -4.66797,-1.42578 -1.95313,-1.40625 -2.8711,-3.82812 -0.91797,-2.44141 -0.66406,-5.3711 z m 4.55079,2.67578 q 0.0976,2.05078 1.07421,3.30078 0.9961,1.23047 2.75391,1.28906 2.38281,0.0586 3.98438,-1.83593 1.62109,-1.89454 2.03125,-5.17579 l 0.11718,-1.91406 q 0,-2.5 -0.99609,-3.92578 -0.99609,-1.42578 -2.89063,-1.50391 -2.96875,-0.0781 -4.6875,2.91016 -1.03515,1.81641 -1.30859,4.17969 -0.15625,1.64062 -0.0781,2.67578 z"
         style="font-style:italic;font-weight:500;-inkscape-font-specification:'Roboto Medium Italic'"
         id="path965" /><path
         d="m 286.74091,236.87665 q -0.39063,3.16406 -1.69922,5.74219 -1.28907,2.57812 -3.30078,3.90625 -1.99219,1.30859 -4.47266,1.25 -3.30078,-0.0781 -5.19531,-2.34375 l -1.89453,10.05859 h -4.64844 l 5.07812,-29.25781 4.23828,-0.0195 -0.35156,2.1875 q 2.42188,-2.63672 5.76172,-2.5586 2.01172,0.0195 3.49609,1.03516 1.48438,0.99609 2.26563,2.91015 0.80078,1.91407 0.85937,4.25782 0.0195,1.1914 -0.13671,2.83203 z m -4.57032,-0.41016 0.0977,-1.42578 q 0.0586,-2.51953 -0.83984,-3.90625 -0.87891,-1.38672 -2.65625,-1.42578 -2.61719,-0.0781 -4.53125,2.40234 l -1.64063,9.4336 q 0.87891,2.36328 3.57422,2.4414 2.30469,0.0586 3.86719,-1.79687 1.58203,-1.85547 2.1289,-5.72266 z"
         style="font-style:italic;font-weight:500;-inkscape-font-specification:'Roboto Medium Italic'"
         id="path967" /></g></g></svg>
