<?xml version="1.0" encoding="UTF-8" standalone="no"?>
<svg
   inkscape:version="1.4 (e7c3feb, 2024-10-09)"
   sodipodi:docname="logo.svg"
   id="svg42"
   viewBox="0 0 108.21322 33.434406"
   version="1.1"
   height="33.434406mm"
   width="108.21322mm"
   xml:space="preserve"
   inkscape:export-filename="logo.png"
   inkscape:export-xdpi="96.470657"
   inkscape:export-ydpi="96.470657"
   xmlns:inkscape="http://www.inkscape.org/namespaces/inkscape"
   xmlns:sodipodi="http://sodipodi.sourceforge.net/DTD/sodipodi-0.dtd"
   xmlns="http://www.w3.org/2000/svg"
   xmlns:svg="http://www.w3.org/2000/svg"
   xmlns:rdf="http://www.w3.org/1999/02/22-rdf-syntax-ns#"
   xmlns:cc="http://creativecommons.org/ns#"
   xmlns:dc="http://purl.org/dc/elements/1.1/"><defs
     id="defs46"><clipPath
       id="clip-path"
       transform="translate(0 0)"><rect
         y="0"
         x="0"
         class="cls-1"
         width="112.97"
         height="78.410004"
         id="rect4" /></clipPath></defs><sodipodi:namedview
     fit-margin-bottom="0"
     fit-margin-right="0"
     fit-margin-left="0"
     fit-margin-top="0"
     inkscape:document-rotation="0"
     inkscape:current-layer="g38"
     inkscape:window-maximized="1"
     inkscape:window-y="0"
     inkscape:window-x="0"
     inkscape:cy="71.390298"
     inkscape:cx="211.81478"
     inkscape:zoom="2.1221371"
     showgrid="false"
     id="namedview44"
     inkscape:window-height="1043"
     inkscape:window-width="1920"
     inkscape:pageshadow="2"
     inkscape:pageopacity="0"
     guidetolerance="10"
     gridtolerance="10"
     objecttolerance="10"
     borderopacity="1"
     bordercolor="#666666"
     pagecolor="#ffffff"
     inkscape:showpageshadow="2"
     inkscape:pagecheckerboard="0"
     inkscape:deskcolor="#d1d1d1"
     inkscape:document-units="mm" /><metadata
     id="metadata2"><rdf:RDF><cc:Work
         rdf:about=""><dc:format>image/svg+xml</dc:format><dc:type
           rdf:resource="http://purl.org/dc/dcmitype/StillImage" /><dc:title /></cc:Work></rdf:RDF></metadata><g
     id="g40"
     transform="translate(-27.536036,-48.646819)"><g
       id="g38"><path
         style="fill:#ecbaba;fill-opacity:1"
         id="path4"
         stroke-width="0.095662"
         fill="#de8787"
         d="m 126.42629,78.864044 c -1.2766,0.48609 -2.7739,0.7107 -4.6321,0.69484 -1.8841,-0.01606 -3.3624,-0.25031 -5.9167,-0.93759 -0.77255,-0.20786 -4.0003,-1.4917 -5.0611,-2.013 -0.45674,-0.22446 -1.1202,-0.5452 -1.4743,-0.71274 -0.35413,-0.16755 -0.74799,-0.3871 -0.87526,-0.48789 -0.12726,-0.1008 -0.2972,-0.19124 -0.37762,-0.20098 -0.13075,-0.0158 -2.4312,-1.4305 -3.5117,-2.1596 -1.3675,-0.92264 -4.1818,-3.498 -5.626702,-5.149 -0.7289,-0.83285 -2.3042,-2.3344 -3.4956,-3.3319 -0.9931,-0.83149 -1.4968,-1.2064 -3.8295,-2.8502 -0.58226,-0.41032 -1.9945,-1.5103 -3.1383,-2.4445 -2.5317,-2.0676 -3.4294,-2.7602 -4.2036,-3.2428 -0.81213,-0.50629 -1.3526,-0.93228 -1.2463,-0.98232 0.04865,-0.0229 0.1787,0.03759 0.28901,0.13449 0.1103,0.09685 0.22993,0.16228 0.26585,0.14537 0.03592,-0.01685 0.11962,0.0289 0.18602,0.10181 0.06639,0.07288 0.28382,0.20183 0.48319,0.28654 0.19937,0.0847 0.42059,0.21186 0.49159,0.28259 0.071,0.07072 0.16836,0.11011 0.21634,0.08754 0.04798,-0.02261 0.1203,0.02922 0.16071,0.1151 0.0404,0.08584 0.1774,0.1553 0.30444,0.15428 0.12703,-0.0011 0.28026,0.0723 0.34051,0.16294 0.08839,0.13301 0.08139,0.14735 -0.03629,0.0743 -0.23776,-0.14758 -0.2086,0.0249 0.03397,0.20089 0.12271,0.08902 0.73548,0.57802 1.3617,1.0867 0.62622,0.50863 1.2199,0.9839 1.3193,1.0561 0.09938,0.07229 0.57427,0.45735 1.0553,0.85579 0.48104,0.39845 0.92495,0.74993 0.98647,0.78107 0.06152,0.03117 0.402,0.28476 0.75661,0.56358 0.35462,0.27883 0.99669,0.74659 1.4268,1.0395 0.43014,0.29288 0.79299,0.55572 0.80633,0.58407 0.01333,0.02833 0.1809,0.13744 0.37233,0.2424 0.19144,0.10496 0.35953,0.21519 0.37354,0.24496 0.01401,0.02976 0.5635,0.50597 1.2211,1.0582 0.6576,0.55225 1.2057,1.0255 1.218,1.0516 0.01227,0.02614 0.21068,0.21149 0.44085,0.4119 0.69558,0.60564 1.3658,1.2838 1.8966,1.9192 0.27681,0.33132 0.73476,0.82071 1.017702,1.0876 0.2829,0.26683 0.73383,0.72206 1.0021,1.0116 0.45445,0.4906 1.1228,1.0979 1.4521,1.3196 0.0781,0.05256 0.63131,0.49813 1.2295,0.99022 1.0739,0.88345 1.4923,1.1715 3.0806,2.1207 1.8744,1.1202 2.7671,1.5951 4.1212,2.1926 2.9729,1.3118 4.0973,1.7489 5.247,2.0393 0.54814,0.13848 1.1735,0.30187 1.3897,0.36312 0.75184,0.21297 3.4291,0.53567 4.2388,0.51091 2.61,-0.0798 3.6796,-0.29691 5.3283,-1.0815 1.333,-0.63435 2.6013,-1.5163 3.1532,-2.1928 0.20008,-0.24525 0.40073,-0.46329 0.44587,-0.48453 0.0451,-0.02127 0.0633,-0.07851 0.0404,-0.12719 -0.0229,-0.04874 0.003,-0.1098 0.0586,-0.13574 0.17702,-0.08325 0.96299,-1.2135 1.305,-1.8766 0.44061,-0.8542 0.94013,-2.2488 1.0523,-2.9379 0.0498,-0.30607 0.11716,-0.569 0.14966,-0.58429 0.0325,-0.01534 0.0565,-0.59863 0.0533,-1.2963 -0.003,-0.69766 -0.004,-1.3911 -0.002,-1.5409 0.0116,-0.77018 -0.85721,-2.9246 -1.6077,-3.9869 -0.34184,-0.48382 -0.52655,-0.67834 -1.2182,-1.2828 -0.72157,-0.63061 -2.1534,-1.432 -2.2581,-1.2638 -0.0252,0.04045 -0.12917,0.03094 -0.23113,-0.0211 -0.15937,-0.08138 -0.16267,-0.09259 -0.0235,-0.08008 0.22996,0.02073 0.01,-0.0538 -0.58137,-0.19666 -0.2713,-0.06557 -0.86112,-0.13342 -1.3107,-0.15076 -1.4477,-0.05586 -2.3997,0.0987 -4.3929,0.71323 -0.59548,0.18359 -1.4759,0.43676 -1.9565,0.5626 -0.48765,0.12768 -1.3113,0.43443 -1.8637,0.69411 -1.0416,0.4899 -1.3148,0.45473 -0.41757,-0.05349 0.76835,-0.43522 4.7197,-1.6618 6.4002,-1.9868 1.4241,-0.27539 3.2803,-0.19286 4.3441,0.19314 0.74775,0.27133 1.6694,0.8053 2.4995,1.4482 0.58978,0.45675 1.5993,1.811 2.024,2.7154 0.61453,1.3081 0.97828,2.8944 0.90713,3.9547 -0.0144,0.21505 -0.0378,0.61551 -0.0519,0.88992 -0.0246,0.47829 -0.27404,1.6895 -0.5466,2.6543 -0.22685,0.80307 -1.048,2.3147 -1.8092,3.3306 -1.3484,1.7996 -2.7676,2.8718 -4.851,3.6651 z m -0.90889,-0.10565 c -0.70387,0.22136 -1.214,0.18108 -1.3934,-0.11012 -0.11407,-0.1851 -0.20128,-0.19942 -0.64259,-0.10555 -0.28084,0.05972 -0.57432,0.06113 -0.6522,0.0031 -0.12224,-0.09104 -0.14271,-0.07127 -0.14978,0.14488 -0.007,0.21626 -0.0585,0.26591 -0.37767,0.36473 -0.45459,0.14077 -2.1606,0.07009 -2.7039,-0.11199 -0.317,-0.10623 -0.41727,-0.19079 -0.48487,-0.40892 -0.0781,-0.25212 -0.12716,-0.27434 -0.59013,-0.26665 -0.48891,0.0081 -1.1146,-0.17076 -1.3082,-0.37391 -0.0724,-0.07599 -0.11785,-0.04099 -0.19471,0.1502 -0.17891,0.44494 -0.60757,0.39317 -2.4576,-0.29677 -0.75774,-0.28259 -0.99967,-0.53751 -0.87215,-0.91898 0.0568,-0.17005 0.0304,-0.18441 -0.2339,-0.12705 -0.17873,0.03874 -0.56655,-0.03908 -0.96902,-0.19457 -0.53864,-0.20808 -0.69856,-0.31706 -0.8105,-0.55227 -0.0765,-0.16128 -0.14867,-0.24004 -0.15993,-0.17523 -0.0569,0.32773 -0.19292,0.47486 -0.43628,0.47206 -0.22033,-0.0025 -0.54542,-0.16481 -1.9269,-0.96191 -0.26997,-0.15577 -0.46919,-0.35164 -0.57674,-0.56704 -0.10953,-0.21942 -0.27493,-0.37956 -0.49627,-0.48059 -0.49079,-0.22402 -0.99903,-0.59132 -1.0922,-0.7893 -0.11423,-0.24277 -0.22153,-0.26347 -0.3601,-0.06945 -0.19003,0.26607 -0.43945,0.23273 -1.0507,-0.1405 -0.90814,-0.55454 -1.3658,-0.98365 -1.6114,-1.5108 -0.11955,-0.25614 -0.23891,-0.45557 -0.26568,-0.44298 -0.15571,0.07327 -1.2865,-1.1005 -1.3095,-1.3592 -0.0121,-0.13596 -0.0652,-0.12998 -0.3187,0.03582 -0.35284,0.23083 -0.42039,0.19383 -1.1359,-0.62173 -0.24016,-0.27377 -0.59968,-0.64014 -0.79893,-0.81415 -0.436232,-0.381 -0.626142,-0.74182 -0.492812,-0.93631 0.07706,-0.11242 0.06131,-0.17031 -0.07306,-0.26852 -0.37394,-0.27333 -1.2082,-1.0637 -1.3893,-1.3162 -0.13262,-0.18492 -0.18212,-0.36192 -0.16053,-0.57358 0.03108,-0.3042 0.03064,-0.30465 -0.06831,-0.06993 -0.22018,0.52222 -0.43112,0.44989 -1.6357,-0.56091 -0.90473,-0.7592 -1.0746,-0.97434 -0.98529,-1.2478 0.04239,-0.12976 0.01591,-0.17025 -0.13297,-0.20341 -0.29908,-0.06661 -1.1066,-0.7594 -1.0295,-0.88328 0.07151,-0.11492 -0.13564,-0.37245 -0.25458,-0.31647 -0.04009,0.01886 -0.02247,0.08414 0.03916,0.14508 0.24108,0.23838 -0.18369,0.11032 -0.756,-0.22794 -0.69896,-0.4131 -1.0845,-0.84485 -0.81085,-0.90804 0.11744,-0.02714 0.20119,0.03251 0.26278,0.18702 0.0717,0.17989 0.12823,0.20687 0.27318,0.13037 0.10053,-0.05302 0.21423,-0.147 0.25268,-0.20878 0.04647,-0.0747 0.07469,-0.05831 0.08419,0.04881 0.0081,0.09108 0.05897,0.14016 0.11699,0.11286 0.05648,-0.02654 0.10878,0.02032 0.11622,0.10414 0.0074,0.08381 0.06103,0.15887 0.11906,0.16674 0.05803,0.0078 0.06801,-0.06547 0.02217,-0.16286 -0.1945,-0.41338 0.26751,-0.43788 0.70078,-0.03717 0.11418,0.10561 0.40599,0.21912 0.64847,0.25225 0.28535,0.03903 0.64183,0.20419 1.0106,0.46832 0.31335,0.22446 0.57701,0.38631 0.58591,0.35968 0.05549,-0.16603 -2.491,-1.8094 -2.8972,-1.8697 -0.07801,-0.01158 -0.13774,-0.06481 -0.13273,-0.11821 0.005,-0.05346 -0.12344,-0.1309 -0.28544,-0.17213 -0.16199,-0.04119 -0.32479,-0.13925 -0.36176,-0.21782 -0.03696,-0.07859 -0.20314,-0.18471 -0.36927,-0.23589 -0.16613,-0.05117 -0.32615,-0.14424 -0.3556,-0.20682 -0.02944,-0.06256 -0.15346,-0.12088 -0.2756,-0.12957 -0.12468,-0.0089 -0.22772,-0.07942 -0.23495,-0.16086 -0.0071,-0.07982 -0.07356,-0.1543 -0.14829,-0.16534 -0.07449,-0.0112 -0.28306,-0.13742 -0.4635,-0.28058 -0.39817,-0.31591 -0.52354,-0.34636 -0.40709,-0.09887 0.04815,0.10235 0.19849,0.2335 0.33409,0.29146 0.13559,0.05792 0.30142,0.17264 0.36851,0.25483 0.09851,0.12071 0.07668,0.17077 -0.11331,0.26015 -0.18112,0.08525 -0.29632,0.05955 -0.50052,-0.11172 -0.14588,-0.12234 -0.26118,-0.2658 -0.25621,-0.31882 0.02259,-0.2412 -0.17066,-0.6397 -0.4258,-0.87804 -0.38629,-0.36086 -0.53186,-0.3564 -0.25391,0.0078 0.12413,0.16264 0.2171,0.3214 0.20661,0.35279 -0.0105,0.03136 -0.04092,0.0109 -0.06771,-0.04624 -0.02675,-0.05684 -0.09152,-0.07101 -0.14394,-0.03145 -0.05242,0.03956 -0.10972,0.01403 -0.12722,-0.05599 -0.01751,-0.07033 -0.13826,-0.15957 -0.26826,-0.19833 -0.13,-0.03874 -0.28397,-0.14135 -0.34215,-0.22797 -0.05817,-0.08665 -0.23435,-0.20843 -0.39149,-0.27068 -0.15714,-0.06221 -0.31469,-0.17477 -0.35012,-0.25007 -0.03542,-0.07525 -0.09649,-0.12179 -0.1357,-0.10334 -0.03921,0.01845 -0.24378,-0.10438 -0.45461,-0.27294 -0.21082,-0.16857 -0.41164,-0.29316 -0.44625,-0.27687 -0.09662,0.04541 -0.73527,-0.43423 -0.86638,-0.65072 -0.06403,-0.1057 -0.16004,-0.20657 -0.21338,-0.22416 -0.05334,-0.01753 -0.04195,0.02492 0.02526,0.09428 0.0869,0.08978 0.08011,0.12871 -0.02347,0.13471 -0.08018,0.0045 -0.17755,-0.05918 -0.21642,-0.14179 -0.03887,-0.08259 -0.28873,-0.23977 -0.55524,-0.34925 -0.26652,-0.10947 -0.67285,-0.31737 -0.90296,-0.46198 -0.23011,-0.14462 -0.47031,-0.23851 -0.53376,-0.20865 -0.06346,0.02989 -0.13612,0.01012 -0.16146,-0.04367 -0.03975,-0.0845 -0.23228,-0.20049 -0.8673,-0.52256 -0.07351,-0.03729 -0.15319,-0.10932 -0.17708,-0.1601 -0.07161,-0.1522 0.10517,-0.17671 0.23516,-0.03295 0.06647,0.07368 0.23918,0.15063 0.38379,0.17102 0.14461,0.02039 0.58829,0.20043 0.98595,0.40011 0.39766,0.19966 0.93755,0.45681 1.1998,0.57146 1.9547,0.85461 3.6531,1.8445 9.2948,5.4175 1.4232,0.90134 2.5275,1.7592 3.6427,2.8299 0.31196,0.29948 0.76612,0.71868 1.0093,0.93156 0.24313,0.21286 0.594202,0.55887 0.780152,0.76888 0.18596,0.21001 0.69404,0.72556 1.1291,1.1456 0.43503,0.42008 0.98847,0.96298 1.2299,1.2064 1.1032,1.1126 3.8919,3.1973 5.4742,4.0923 1.2804,0.72422 4.0133,2.0121 5.9996,2.8274 2.8036,1.1507 6.1164,1.7798 8.5088,1.6159 1.2757,-0.0874 2.3249,-0.35989 3.4984,-0.90863 0.82559,-0.38597 1.0656,-0.54266 1.5767,-1.0287 0.33155,-0.31536 0.65679,-0.66161 0.72276,-0.76943 0.066,-0.10783 0.20159,-0.26956 0.30137,-0.3594 0.24333,-0.21908 0.82986,-1.142 1.1873,-1.8681 0.62267,-1.2651 0.99131,-3.3798 0.79642,-4.5688 -0.16115,-0.98318 -0.43143,-1.5614 -1.1247,-2.4062 -1.0034,-1.2227 -1.6597,-1.7325 -2.5609,-1.9894 -0.80877,-0.23051 -1.7372,-0.27916 -2.4881,-0.13034 -0.8566,0.16977 -2.0543,0.31407 -2.1373,0.25776 -0.19136,-0.13031 0.0782,-0.21122 1.3117,-0.39373 0.71717,-0.10609 1.5946,-0.24862 1.9498,-0.31657 0.35885,-0.06868 0.61529,-0.07405 0.57695,-0.01291 -0.0526,0.0846 -0.0384,0.11489 0.0606,0.12828 0.0712,0.0097 0.1399,-0.01359 0.15264,-0.05175 0.0127,-0.03807 0.13674,-0.03003 0.27555,0.01804 0.13881,0.04807 0.27484,0.05126 0.3023,0.0071 0.0275,-0.04415 0.0812,-0.01367 0.11935,0.0673 0.043,0.09147 0.10667,0.1075 0.16731,0.04227 0.0538,-0.05795 0.1704,-0.06927 0.25899,-0.02571 0.0887,0.04406 0.21586,0.05433 0.28268,0.02283 0.0668,-0.0314 0.1167,-0.0068 0.11094,0.05581 -0.006,0.06212 0.18138,0.18095 0.41601,0.26405 0.30619,0.10846 0.49115,0.24964 0.65531,0.50018 0.20256,0.30914 0.20866,0.35059 0.0534,0.36224 -0.16495,0.01253 -0.16132,0.01968 0.0615,0.123 0.1303,0.06046 0.33063,0.25434 0.44519,0.43094 0.11458,0.1766 0.35925,0.45513 0.54375,0.61893 0.39028,0.34649 0.81874,1.1681 0.98701,1.8928 0.0623,0.26821 0.16922,0.69492 0.23764,0.94824 0.13819,0.51164 0.0141,1.2271 -0.42325,2.4412 -0.14255,0.39564 -0.22984,0.78169 -0.19399,0.85788 0.067,0.14245 -0.25865,1.0837 -0.39759,1.1491 -0.0427,0.02008 -0.0621,0.06971 -0.0431,0.11016 0.0409,0.08698 -0.1064,0.27861 -0.68898,0.89613 -0.23696,0.25118 -0.41645,0.48726 -0.39886,0.52465 0.0176,0.03739 -0.0289,0.09658 -0.10326,0.13159 -0.25381,0.11945 -0.57725,0.61785 -0.50314,0.77536 0.056,0.11904 -0.0518,0.25787 -0.46394,0.59731 -0.2953,0.24323 -0.56414,0.41282 -0.59744,0.37687 -0.0837,-0.09036 -1.6284,0.7033 -1.951,1.0025 -0.32478,0.30123 -1.3749,0.59321 -1.8203,0.50612 -0.18459,-0.03609 -0.35769,-0.0031 -0.46514,0.08875 -0.1093,0.09344 -0.16715,0.10363 -0.16013,0.02807 0.0147,-0.15714 -0.56179,-0.13384 -0.713,0.02875 -0.0656,0.07052 -0.10558,0.08756 -0.089,0.03785 0.0166,-0.04971 -0.0605,-0.11181 -0.17139,-0.13801 -0.23336,-0.05517 -0.38018,-0.01549 -0.25593,0.06915 0.0469,0.0319 -0.004,0.07364 -0.11399,0.09268 -0.12421,0.02179 -0.17423,-0.0054 -0.13287,-0.07184 0.0375,-0.06024 -0.32122,-0.12016 -0.82488,-0.13783 -0.49016,-0.01723 -0.93346,-0.06006 -0.98512,-0.09524 -0.0517,-0.03516 -0.16782,-0.02922 -0.25812,0.01322 -0.0903,0.04254 -0.1785,0.04748 -0.19602,0.01109 -0.0173,-0.03641 -0.22102,-0.0984 -0.45226,-0.1378 -0.23124,-0.03941 -0.46923,-0.1036 -0.52888,-0.14268 -0.0597,-0.03904 -0.2482,-0.0667 -0.41902,-0.06153 -0.17081,0.0053 -0.57223,-0.07983 -0.89204,-0.18898 -0.31981,-0.10915 -0.62036,-0.15759 -0.66788,-0.10762 -0.0475,0.04995 -0.11168,0.03713 -0.14259,-0.02859 -0.0603,-0.12818 -1.6595,-0.68934 -1.7898,-0.62804 -0.0513,0.02411 0.25162,0.49886 0.36955,0.57914 0.0562,0.03824 0.0314,0.06868 -0.0606,0.07406 -0.22454,0.01296 -0.1058,0.1961 0.1384,0.21348 0.1492,0.01058 0.2026,-0.02103 0.19584,-0.11539 -0.005,-0.07669 0.0233,-0.06762 0.0703,0.02187 0.0438,0.08352 0.11197,0.13664 0.1515,0.11804 0.0395,-0.01859 0.29336,0.01321 0.56403,0.07064 0.33926,0.07202 0.46938,0.14102 0.41891,0.22211 -0.0482,0.07742 -0.034,0.12295 0.0413,0.13316 0.063,0.0085 0.11973,-0.0404 0.12614,-0.10873 0.0174,-0.1862 0.39603,-0.22126 1.0988,-0.10174 0.34618,0.0589 0.76062,0.11832 0.921,0.13212 0.50259,0.04322 0.90955,0.18384 1.1105,0.38372 0.10654,0.10597 0.24343,0.17238 0.30418,0.14756 0.0608,-0.02474 0.0352,0.04184 -0.0568,0.14824 -0.15432,0.17834 -0.11674,0.18407 0.48403,0.07383 0.35825,-0.06569 0.69309,-0.09517 0.74412,-0.06528 0.13267,0.0775 0.76202,0.0086 1.0169,-0.11166 0.11895,-0.05601 0.37836,-0.10614 0.57644,-0.11163 0.1981,-0.0054 0.56469,-0.05354 0.81467,-0.10689 0.64113,-0.13684 0.96491,-0.06863 1.0413,0.21949 0.0538,0.20291 0.0952,0.21808 0.33075,0.12101 0.36463,-0.15023 0.83628,-0.41946 0.86185,-0.49191 0.0115,-0.03248 -0.0447,-0.068 -0.12479,-0.07884 -0.23134,-0.03135 0.33021,-0.40534 1.426,-0.94976 0.89858,-0.44642 1.1546,-0.51072 0.99178,-0.249 -0.0329,0.05285 -0.0243,0.12024 0.019,0.14978 0.0434,0.02949 0.18786,-0.08494 0.32122,-0.2541 0.13331,-0.16928 0.35302,-0.39375 0.48825,-0.49885 0.13523,-0.10508 0.22734,-0.23045 0.20469,-0.27858 -0.023,-0.04893 -0.10805,-0.02383 -0.19283,0.05683 -0.10206,0.09711 -0.14781,0.10335 -0.13997,0.01863 0.006,-0.06894 0.0657,-0.15069 0.13168,-0.18173 0.066,-0.03099 0.13464,-0.17905 0.15261,-0.32892 0.018,-0.14986 0.14972,-0.46498 0.29278,-0.70027 0.14306,-0.23527 0.24665,-0.45638 0.2302,-0.49134 -0.0294,-0.06257 0.61733,-0.60241 0.85674,-0.71506 0.0675,-0.03178 0.15085,0.002 0.18523,0.07509 0.0891,0.18932 0.15606,0.12798 0.2254,-0.2064 0.0332,-0.16007 0.17992,-0.40591 0.32605,-0.54631 0.14614,-0.1404 0.3177,-0.32588 0.38124,-0.41219 0.10988,-0.14924 0.10442,-0.16186 -0.11151,-0.25785 -0.26748,-0.1189 -0.3931,-0.08278 -0.31194,0.0897 0.0484,0.10295 -0.0593,0.30992 -0.19433,0.37347 -0.10478,0.0493 -0.10391,-0.19881 0.002,-0.45372 0.0665,-0.16062 0.0987,-0.33926 0.0715,-0.39698 -0.0854,-0.18155 0.0792,-0.75553 0.29028,-1.0119 0.11144,-0.13537 0.24259,-0.30937 0.29145,-0.38669 0.0489,-0.0773 0.14577,-0.19396 0.21536,-0.25922 0.0696,-0.06526 0.11649,-0.24907 0.10424,-0.40846 -0.0139,-0.18033 0.0145,-0.25247 0.0752,-0.19096 0.0536,0.05436 0.0761,0.16303 0.0497,0.24165 -0.0263,0.07854 -0.0186,0.20484 0.0171,0.28063 0.0365,0.07754 -0.0701,0.30699 -0.2438,0.52483 -0.33033,0.41421 -0.43207,0.77774 -0.34079,1.2178 0.0567,0.27352 0.0577,0.27365 0.39399,0.05363 0.42971,-0.28112 0.47318,-0.42467 0.25832,-0.85314 -0.16242,-0.32386 -0.15823,-0.35481 0.0617,-0.45829 0.12973,-0.06102 0.23162,-0.16984 0.22644,-0.24177 -0.007,-0.1033 0.003,-0.10783 0.0501,-0.02156 0.0395,0.07245 0.12114,0.05772 0.24229,-0.04367 0.17024,-0.14244 0.18966,-0.13197 0.28396,0.15305 0.0557,0.16826 0.10928,0.43349 0.11912,0.58938 0.0198,0.31366 -0.2061,0.70043 -0.39428,0.67495 -0.069,-0.0093 -0.0913,0.04639 -0.0519,0.1302 0.0911,0.19364 -0.0105,0.81236 -0.14367,0.87503 -0.0577,0.02709 -0.0969,0.24286 -0.0872,0.47941 0.0187,0.45589 -0.3222,1.3042 -0.69383,1.7264 -0.17117,0.19448 -0.26451,0.24206 -0.42941,0.21893 -0.17377,-0.02438 -0.2281,0.01691 -0.30995,0.23575 -0.0546,0.14592 -0.11923,0.27833 -0.14365,0.29424 -0.43977,0.28655 -0.61446,0.55252 -0.46194,0.70332 0.1996,0.19736 -0.27691,0.92112 -1.0226,1.5532 -0.54308,0.46034 -0.98609,0.63032 -1.0865,0.41692 -0.0434,-0.09233 -0.18612,-0.05111 -0.61292,0.1768 -0.45802,0.24456 -0.55498,0.33397 -0.54862,0.50588 0.0128,0.34506 -0.43581,0.617 -1.645,0.99726 z m 1.3342,-1.0763 c -0.0528,-0.1123 -0.26004,-0.24666 -0.48319,-0.31333 -0.40451,-0.12084 -0.74177,-0.05327 -0.61369,0.1229 0.0403,0.05544 -0.003,0.13659 -0.0959,0.18038 -0.093,0.04377 -0.18304,0.02576 -0.20012,-0.04109 -0.017,-0.06635 -0.069,-0.10276 -0.11553,-0.08084 -0.0465,0.02184 -0.0617,0.0899 -0.0338,0.15113 0.0385,0.08394 0.023,0.09294 -0.0623,0.0363 -0.13954,-0.09248 -0.77528,0.25465 -0.87332,0.47685 -0.2293,0.51966 0.73824,0.50224 1.9115,-0.0344 0.62601,-0.28628 0.65422,-0.31128 0.56637,-0.49797 z m 2.3814,-1.2503 c 0.49642,-0.42811 0.97991,-1.0497 0.96317,-1.2382 -0.0428,-0.48294 -0.94929,-0.09839 -1.5904,0.67471 -0.24741,0.29833 -0.33345,0.76791 -0.17028,0.92925 0.13798,0.13644 0.30301,0.0607 0.79755,-0.36575 z m -1.1529,-0.01993 c 0.0758,-0.25095 0.10224,-0.49462 0.0587,-0.54152 -0.10698,-0.1153 -2.087,0.81145 -2.0664,0.9672 0.0176,0.13326 0.63621,0.38573 0.92002,0.37549 0.11173,-0.0042 0.37117,-0.08324 0.57648,-0.17611 0.32197,-0.14559 0.39224,-0.23152 0.51114,-0.62505 z m -3.7647,1.3694 c 0.091,-0.11484 0.1313,-0.30225 0.0919,-0.4275 -0.0631,-0.2004 -0.0946,-0.20655 -0.31238,-0.06009 -0.13319,0.08963 -0.25472,0.13627 -0.27001,0.10376 -0.0382,-0.08107 -0.81736,0.03148 -0.84779,0.1225 -0.0134,0.04016 0.02,0.05221 0.0743,0.02663 0.0543,-0.02558 0.11608,-0.0098 0.13745,0.03595 0.0238,0.05055 -0.0805,0.10019 -0.27,0.12853 -0.22231,0.03344 -0.313,0.08549 -0.32372,0.18693 -0.0238,0.22473 0.0189,0.26086 0.41775,0.35352 0.58723,0.13642 0.91587,0.01781 1.3026,-0.47018 z m -1.8923,0.62892 c -0.0367,-0.11662 -0.10744,-0.19287 -0.15721,-0.16945 -0.0498,0.02343 -0.12342,-0.02744 -0.1637,-0.11306 -0.17504,-0.37202 -1.4341,-0.52788 -2.0295,-0.25124 -0.13979,0.06523 -0.34842,0.16088 -0.46351,0.21286 -0.32881,0.14887 -0.33332,0.32625 -0.0131,0.51477 0.34794,0.20485 2.4071,0.31148 2.6926,0.13942 0.13972,-0.08426 0.18082,-0.18609 0.13447,-0.33331 z m 8.3386,-4.4134 c 0.12535,-0.17302 0.17127,-0.36779 0.12724,-0.53969 -0.0379,-0.14792 -0.0945,-0.39016 -0.1259,-0.5383 -0.0908,-0.42897 -0.30175,-0.32071 -0.80204,0.4116 -0.52163,0.76354 -0.64522,1.0256 -0.56458,1.1969 0.14157,0.3009 1.0064,-0.03519 1.3653,-0.53055 z m 0.96481,-0.734 c 0.24097,-0.41436 0.56581,-1.3637 0.50839,-1.4858 -0.0774,-0.16449 -0.33424,-0.23346 -0.52622,-0.14129 -0.14235,0.06856 -0.1434,0.08752 -0.005,0.10911 0.14869,0.02323 0.1538,0.03411 0.046,0.09771 -0.0667,0.03934 -0.1533,0.08043 -0.19245,0.09112 -0.0391,0.01069 -0.0649,0.09018 -0.0572,0.17637 0.008,0.08619 -0.0357,0.1801 -0.0964,0.20865 -0.13499,0.06346 -0.29865,0.70339 -0.2554,0.99857 0.0198,0.13551 0.0876,0.22383 0.18221,0.23776 0.20387,0.02998 0.21308,0.02314 0.39657,-0.29231 z m -12.12,4.1885 c 0.008,-0.25884 -0.20366,-0.3777 -0.65603,-0.36754 -0.18274,0.0041 -0.35544,-0.04179 -0.3838,-0.10208 -0.0284,-0.06028 -0.16842,-0.08623 -0.31127,-0.05771 -0.14284,0.02854 -0.37781,0.01273 -0.52213,-0.03499 -0.17105,-0.05663 -0.26639,-0.04451 -0.27386,0.03453 -0.0144,0.15341 -0.2411,0.26631 -0.29687,0.14778 -0.0229,-0.04874 0.0154,-0.11544 0.0852,-0.14828 0.0698,-0.03285 0.11047,-0.09458 0.0904,-0.1372 -0.0589,-0.12523 -0.45262,0.10459 -0.496,0.28949 -0.0306,0.13057 0.007,0.19038 0.16492,0.26048 0.11258,0.05008 0.21119,0.11228 0.21914,0.13828 0.0548,0.17922 0.34654,0.36725 0.59078,0.3807 0.15945,0.0088 0.32282,0.03428 0.36303,0.0566 0.39639,0.22001 1.4149,-0.10866 1.4264,-0.46037 z m 12.766,-6.3951 c -0.007,-0.08291 -0.0559,-0.17971 -0.10774,-0.21505 -0.14689,-0.10003 -0.30483,0.13306 -0.21685,0.32007 0.0924,0.19646 0.34411,0.11502 0.32459,-0.105 z m -15.562,6.6824 c -0.0606,-0.29241 -0.4831,-0.79906 -0.78793,-0.945 -0.37409,-0.1791 -0.98397,-0.22277 -1.5019,-0.10757 -0.4143,0.09219 -0.49322,0.1374 -0.55344,0.31763 -0.065,0.19462 -0.0322,0.22177 0.44487,0.3674 0.28332,0.08649 0.74287,0.24483 1.0212,0.35187 0.59407,0.22845 1.1696,0.35648 1.3194,0.2935 0.0584,-0.02446 0.0844,-0.14957 0.0578,-0.27782 z m 16.108,-8.0212 c -0.0899,-0.19112 -0.28423,-0.35815 -0.3698,-0.31788 -0.11002,0.05173 -0.0518,0.53189 0.0803,0.66252 0.1366,0.13507 0.37931,-0.15382 0.28953,-0.34464 z m -18.511,6.2449 c 0.0156,-0.15618 -0.0389,-0.21967 -0.26272,-0.30612 -0.15529,-0.06001 -0.25941,-0.06034 -0.2314,-8.26e-4 0.028,0.05951 -0.0108,0.13732 -0.0863,0.17284 -0.11365,0.05347 -0.12973,0.03252 -0.0935,-0.12165 0.0361,-0.15397 0.005,-0.19517 -0.17679,-0.23794 -0.31607,-0.07416 -0.34568,-0.03751 -0.17581,0.2179 0.14467,0.2175 0.14216,0.2222 -0.0626,0.11697 -0.11733,-0.06029 -0.23471,-0.15506 -0.26083,-0.2106 -0.0261,-0.05551 -0.17877,-0.10821 -0.33919,-0.11707 -0.16043,-0.0088 -0.33278,-0.03995 -0.38301,-0.06908 -0.0502,-0.02918 -0.17826,0.02016 -0.28461,0.10871 -0.25525,0.2136 -0.14543,0.42529 0.37834,0.72925 0.31868,0.18494 0.4552,0.21224 0.57019,0.11398 0.10392,-0.08877 0.17118,-0.08668 0.21509,0.0066 0.14557,0.30939 1.1562,-0.03201 1.1932,-0.40305 z m -1.7941,0.0042 c -0.0229,-0.04874 -0.004,-0.10649 0.0429,-0.12837 0.0465,-0.02194 0.10334,1.8e-5 0.12626,0.04875 0.0229,0.04874 0.004,0.10649 -0.0429,0.12837 -0.0465,0.02194 -0.10334,-1.7e-5 -0.12626,-0.04875 z m 1.8317,-0.7181 c -0.0628,-0.13344 -1.1655,-0.46167 -1.2257,-0.36485 -0.0409,0.06578 -0.0602,0.05246 -0.0519,-0.03583 0.008,-0.0888 -0.17136,-0.20746 -0.48882,-0.32288 -0.27608,-0.10037 -0.68057,-0.28201 -0.89886,-0.40364 -0.54815,-0.30541 -1.6609,-0.70672 -1.8368,-0.66246 -0.0799,0.02006 -0.11782,0.09485 -0.0843,0.16605 0.0335,0.07125 0.0666,0.19363 0.0736,0.27199 0.007,0.07832 0.19645,0.22444 0.42109,0.3246 0.22464,0.10017 0.49356,0.26378 0.59761,0.36358 0.16746,0.16063 0.19176,0.15972 0.21176,-0.008 0.0204,-0.17102 0.0478,-0.18533 0.28178,-0.1472 0.14256,0.02326 0.27809,0.08241 0.30118,0.13148 0.0244,0.05179 -0.0309,0.06862 -0.13157,0.04009 -0.22151,-0.06262 -0.36021,0.12856 -0.16393,0.22605 0.0956,0.04745 0.12206,0.11668 0.0859,0.22493 -0.0701,0.20986 0.18508,0.24813 0.54391,0.08154 0.33413,-0.15523 0.93335,-0.17505 1.1754,-0.03904 0.10171,0.05711 0.36344,0.11276 0.58163,0.1236 0.21818,0.01085 0.4125,0.05329 0.43181,0.09433 0.0193,0.04101 0.0732,0.05677 0.1197,0.03483 0.0465,-0.02194 0.072,-0.06655 0.0566,-0.09927 z m -3.2849,-0.04947 c -0.29443,-0.43059 -0.53082,-0.58371 -0.68082,-0.44096 -0.14668,0.13961 -0.36526,0.01295 -0.26254,-0.15214 0.042,-0.06753 0.0227,-0.15362 -0.0448,-0.19959 -0.091,-0.06191 -0.12676,-0.03379 -0.15322,0.12056 -0.02,0.11685 -0.0736,0.17478 -0.12761,0.138 -0.0512,-0.03491 -0.065,-0.10847 -0.0307,-0.16355 0.10905,-0.17525 -0.72148,-0.15648 -0.94834,0.02145 -0.2557,0.20052 -0.23021,0.2624 0.1809,0.43941 0.17814,0.07673 0.33713,0.16758 0.35331,0.20196 0.0345,0.07334 1.4684,0.75503 1.6459,0.78245 0.0666,0.01032 0.15959,-0.07987 0.20667,-0.20039 0.0681,-0.17426 0.0397,-0.28622 -0.13872,-0.54717 z m -1.6559,-1.3376 c -0.032,-0.21863 -0.85747,-0.78868 -1.0267,-0.70906 -0.052,0.02451 -0.0825,0.0078 -0.0675,-0.03659 0.0362,-0.10828 -0.27457,-0.34343 -0.38513,-0.2914 -0.0496,0.02331 -0.0243,0.11664 0.0585,0.21589 0.12954,0.15532 0.12671,0.16195 -0.0254,0.05951 -0.0942,-0.06344 -0.17679,-0.17862 -0.18364,-0.25592 -0.02,-0.22551 -0.77976,-0.543 -0.95043,-0.39718 -0.11543,0.0986 -0.10829,0.2005 0.0354,0.50599 0.24931,0.52987 0.50784,0.76041 1.084,0.96662 0.48973,0.17527 1.1915,0.26916 1.3883,0.18576 0.056,-0.02367 0.0887,-0.13337 0.0725,-0.24363 z m -0.27651,-0.97521 c -0.3605,-0.19148 -0.8501,-0.45699 -1.088,-0.59002 -0.2379,-0.13303 -0.52165,-0.26676 -0.63056,-0.29718 -0.10891,-0.03037 -0.2127,-0.0865 -0.23063,-0.12462 -0.0179,-0.03815 -0.62447,-0.48734 -1.3479,-0.99826 -0.72338,-0.51092 -1.3313,-0.96305 -1.3509,-1.0047 -0.0594,-0.12622 -1.1995,-0.91575 -1.2746,-0.88264 -0.1473,0.06492 0.75767,0.8389 1.4673,1.2549 0.30727,0.18011 0.53167,0.49567 0.52693,0.74098 -0.004,0.22712 0.67756,0.77013 0.80195,0.63855 0.0526,-0.05569 0.12269,-0.01492 0.17984,0.10475 0.20707,0.43312 0.37278,0.55276 0.55508,0.4002 0.21586,-0.18063 0.64659,-0.01382 2.3029,0.89202 0.36,0.19687 0.67467,0.32561 0.69927,0.28609 0.0246,-0.03948 -0.25023,-0.22854 -0.61073,-0.42002 z m 19.552,-9.9893 c -0.0344,-0.07306 -0.11842,-0.10657 -0.18674,-0.0744 -0.0757,0.03557 -0.0808,0.10143 -0.013,0.16841 0.0611,0.06051 0.1452,0.09397 0.18674,0.0744 0.0416,-0.01953 0.0474,-0.09535 0.013,-0.1684 z m -22.22,10.289 c 0.17503,-0.24506 -0.0966,-0.75569 -0.61718,-1.1603 -0.5574,-0.43322 -1.0131,-0.61801 -1.4872,-0.60308 -0.35093,0.01105 -0.38278,0.02661 -0.36914,0.18028 0.0193,0.21796 0.76185,0.9138 1.3149,1.2322 0.23784,0.13695 0.54896,0.31917 0.69141,0.40493 0.29406,0.17706 0.30295,0.17603 0.46723,-0.05446 z m 21.99,-10.559 c -0.21622,-0.03385 -0.30598,0.0084 -0.25376,0.11945 0.0229,0.04874 0.12704,0.04766 0.23136,-0.0023 0.15345,-0.0734 0.15767,-0.09596 0.0224,-0.11708 z m -23.563,8.3279 c 0.0409,-0.17433 -0.1136,-0.32609 -0.40956,-0.40231 -0.0409,-0.01056 -0.22276,-0.14402 -0.40421,-0.29666 -0.18145,-0.15263 -0.37046,-0.24626 -0.42003,-0.20807 -0.0496,0.03821 -0.13882,-0.01715 -0.19836,-0.12304 -0.21272,-0.37826 -0.26488,-0.44692 -0.47258,-0.62192 -0.35784,-0.30149 -0.95325,-0.26241 -0.64505,0.04234 0.0598,0.05916 0.0617,0.12981 0.004,0.15692 -0.14085,0.06627 0.25975,0.69633 0.52034,0.81838 0.10599,0.04965 0.19951,0.1527 0.20783,0.22904 0.0251,0.23047 0.43019,0.47835 0.97882,0.59893 0.57358,0.12607 0.77463,0.07966 0.83873,-0.19363 z m -2.3782,-1.3216 c -0.0243,-0.0516 0.005,-0.08706 0.0662,-0.07886 0.0607,0.0082 0.11862,0.03254 0.12872,0.054 0.0101,0.02146 -0.0197,0.05692 -0.0662,0.07886 -0.0465,0.02194 -0.10445,-0.0024 -0.12872,-0.054 z m -0.45585,-0.05411 c 0.0405,-0.09906 -0.24371,-0.81079 -0.3695,-0.92538 -0.0774,-0.07056 -0.16539,-0.16536 -0.19547,-0.2107 -0.29347,-0.4425 -1.4093,-1.0138 -1.706702,-0.87389 -0.24963,0.11745 -0.13122,0.28626 0.941422,1.3421 0.52922,0.52094 0.96873,0.96101 0.9767,0.97795 0.0149,0.03176 0.32496,-0.24019 0.35352,-0.31011 z m -0.82896,-0.38513 c -0.1053,-0.10466 -0.10038,-0.11939 0.024,-0.07183 0.0861,0.03288 0.1457,0.09214 0.13248,0.13165 -0.0132,0.03953 -0.0836,0.01295 -0.1565,-0.05977 z m 1.1313,-1.123 c -0.35318,-0.32965 -0.67709,-0.57134 -0.71981,-0.53708 -0.0427,0.03428 -0.0842,-0.01075 -0.0921,-0.10003 -0.008,-0.08929 -0.18202,-0.31105 -0.38684,-0.49285 -0.20483,-0.1818 -0.5863,-0.5809 -0.84771,-0.8869 -0.432582,-0.50636 -0.672252,-0.68223 -0.722972,-0.53047 -0.01046,0.03135 0.2222,0.30532 0.517012,0.60898 0.56016,0.57698 0.76731,1.0324 0.52206,1.1478 -0.0689,0.03245 -0.1107,0.08988 -0.0929,0.12781 0.0629,0.13363 0.48504,0.33966 0.53418,0.26069 0.0451,-0.07253 0.54424,0.37176 0.75451,0.67164 0.0471,0.06712 0.13711,0.13279 0.20013,0.14596 0.0745,0.01553 0.10693,0.10436 0.0927,0.25386 -0.0201,0.21172 -0.002,0.22045 0.23265,0.1102 0.13996,-0.06586 0.35445,-0.08014 0.47664,-0.03181 0.37802,0.14957 0.21578,-0.1098 -0.46766,-0.74775 z m -1.4065,-0.58232 c -0.0463,-0.01787 -0.10355,-0.07371 -0.12724,-0.12404 -0.0261,-0.05551 0.0157,-0.06884 0.10633,-0.03387 0.0822,0.03173 0.13943,0.08756 0.12724,0.12405 -0.0122,0.03649 -0.0601,0.05164 -0.10634,0.03377 z m -0.65027,-0.57693 c -0.18116,-0.38504 -1.857702,-1.9574 -2.010402,-1.8856 -0.1264,0.05952 -0.15069,0.58613 -0.03807,0.82549 0.06301,0.13392 0.15368,0.20197 0.22462,0.1686 0.07732,-0.03637 0.13266,0.01335 0.15807,0.14198 0.02149,0.10889 0.07668,0.1803 0.12258,0.15871 0.04591,-0.02156 0.21304,0.11425 0.37141,0.30189 0.44589,0.52826 0.829332,0.75593 1.076902,0.63944 0.17707,-0.08336 0.19297,-0.14205 0.0949,-0.35054 z m -1.215802,-2.0629 c -0.23798,-0.2044 -0.61551,-0.55339 -0.83894,-0.77552 -0.4483,-0.44567 -0.78487,-0.73778 -0.88915,-0.77169 -0.03739,-0.01218 -0.23587,-0.16218 -0.44106,-0.3334 -0.33802,-0.28204 -0.3622,-0.28814 -0.25724,-0.06493 0.0639,0.1359 0.07027,0.29544 0.01422,0.35573 -0.07871,0.08467 -0.06269,0.13947 0.07101,0.24292 0.09496,0.07352 0.18345,0.10129 0.19665,0.06185 0.0132,-0.03943 0.1686,0.04 0.34532,0.17655 0.26009,0.20101 0.35818,0.3524 0.51467,0.79436 l 0.19333,0.54604 0.18654,-0.1561 c 0.23473,-0.19642 0.5494,-0.17792 0.74927,0.04405 0.22655,0.2516 0.61918,0.48666 0.60251,0.36073 -0.008,-0.05988 -0.20913,-0.27617 -0.44711,-0.48057 z m -1.3964,0.21703 c -0.38484,-0.94165 -0.94028,-1.4542 -1.6168,-1.4919 -0.16148,-0.009 -0.36492,-0.04157 -0.45211,-0.07244 -0.08717,-0.03084 -0.20144,-0.0099 -0.2539,0.04656 -0.07794,0.08387 -0.05618,0.13712 0.11883,0.2911 0.64628,0.5685 1.03,0.8324 1.1372,0.78199 0.09682,-0.04553 0.1121,-0.02137 0.07805,0.12376 -0.0351,0.14962 0.0032,0.17761 0.2247,0.1641 0.1577,-0.0097 0.35459,0.07566 0.48092,0.20827 0.25225,0.26479 0.40126,0.23772 0.28309,-0.05143 z m -1.4589,-0.78658 c -0.06548,-0.04459 -0.10748,-0.11575 -0.09332,-0.15812 0.0384,-0.1149 0.1758,-0.03718 0.19535,0.11055 0.01369,0.10349 -0.0063,0.11279 -0.10195,0.04775 z m 0.82401,0.75672 c -0.10311,-0.03982 -0.12348,-0.01817 -0.07655,0.08159 0.08285,0.17608 0.25263,0.24166 0.23253,0.08983 -0.0085,-0.06444 -0.07872,-0.14154 -0.15597,-0.17139 z m -0.70558,-1.9141 c -0.02404,-0.05112 -0.3089,-0.26129 -0.63303,-0.46711 -0.32413,-0.20582 -0.60402,-0.40545 -0.62197,-0.4436 -0.01795,-0.03815 -0.1784,-0.13213 -0.35654,-0.20882 -0.17814,-0.07673 -0.34168,-0.17726 -0.36342,-0.22346 -0.02175,-0.04626 -0.0776,-0.06611 -0.12411,-0.04418 -0.04653,0.02184 -0.10924,-0.0095 -0.13937,-0.06965 -0.03023,-0.06016 -0.15294,-0.16064 -0.2729,-0.2232 -0.2157,-0.11249 -0.21661,-0.11181 -0.08247,0.06065 0.07461,0.09592 0.10481,0.20465 0.06713,0.2416 -0.03838,0.03769 0.0077,0.16243 0.1048,0.28374 0.12876,0.16085 0.20573,0.1857 0.29932,0.09664 0.07475,-0.07111 0.17058,-0.07584 0.23563,-0.01146 0.07128,0.07049 0.06222,0.11114 -0.02594,0.11624 -0.07462,0.0038 -0.14067,0.06222 -0.1469,0.12873 -0.0062,0.0665 0.02899,0.10191 0.07826,0.07872 0.04927,-0.02317 0.12709,0.03758 0.17293,0.135 0.04585,0.09744 0.12142,0.15925 0.16794,0.13736 0.04652,-0.02194 0.11415,0.023 0.1503,0.09988 0.03615,0.07687 0.24121,0.20748 0.45571,0.29034 0.31395,0.12128 0.39326,0.11926 0.40678,-0.01043 0.01373,-0.13162 0.02998,-0.13364 0.08895,-0.01108 0.03945,0.08263 0.15789,0.15929 0.26267,0.17063 0.24712,0.02675 0.3304,-0.01143 0.27623,-0.12655 z m -2.9152,-1.3046 c -0.27602,-0.24768 -0.51956,-0.34794 -0.53164,-0.21887 -0.0052,0.0557 0.07039,0.12381 0.16797,0.15142 0.09759,0.02759 0.20953,0.11839 0.24875,0.20175 0.08524,0.18116 0.2143,0.24364 0.2812,0.13613 0.02664,-0.04274 -0.04822,-0.16447 -0.16627,-0.27042 z m -2.5451,-2.3958 c -0.02293,-0.04874 -0.05844,-0.08067 -0.07898,-0.07098 -0.02054,0.0095 -0.04208,0.06844 -0.0479,0.13072 -0.0058,0.06222 0.02972,0.09415 0.07898,0.07098 0.04926,-0.02317 0.07082,-0.08202 0.0479,-0.13073 z m -2.0102,-1.6374 c -0.02012,-0.04273 -0.11702,-0.10049 -0.21534,-0.1283 -0.19405,-0.05491 -0.1978,-0.01821 -0.01643,0.16116 0.12413,0.12274 0.29367,0.09871 0.2318,-0.03255 z m -0.76145,-0.52047 c -0.02293,-0.04874 -0.07974,-0.07069 -0.12626,-0.04876 -0.04652,0.02194 -0.10905,-0.0095 -0.13896,-0.06981 -0.02991,-0.0603 -0.2346,-0.19524 -0.45488,-0.29987 l -0.40051,-0.1902 0.31495,0.24268 c 0.49777,0.38356 0.7139,0.51737 0.78309,0.48481 0.03533,-0.01658 0.04549,-0.07005 0.02256,-0.11881 z m 29.616002,21.334 c -0.0517,-0.03516 -0.0536,-0.08295 -0.004,-0.10614 0.0493,-0.02317 0.10833,-0.0023 0.13126,0.04645 0.0229,0.04874 0.0249,0.09644 0.004,0.10614 -0.0205,0.0095 -0.0796,-0.0113 -0.13126,-0.04645 z m -0.54981,-0.18044 c -0.0243,-0.0516 0.006,-0.08706 0.0662,-0.07886 0.0607,0.0082 0.11862,0.03254 0.12872,0.054 0.0101,0.02146 -0.0197,0.05702 -0.0662,0.07885 -0.0465,0.02194 -0.10445,-0.0024 -0.12873,-0.054 z m 2.687,-1.5309 c -0.25212,-0.12518 -0.17116,-0.19146 0.10778,-0.08822 0.13244,0.04903 0.20074,0.10797 0.15177,0.131 -0.049,0.02303 -0.16576,0.0038 -0.25955,-0.0428 z m 11.633,-8.2164 c -0.0201,-0.04273 0.001,-0.16223 0.047,-0.26552 0.0757,-0.17028 0.0828,-0.16474 0.0759,0.05927 -0.008,0.25546 -0.0592,0.34158 -0.12285,0.20628 z m 0.33118,-0.6136 c -0.0346,-0.07353 -0.0402,-0.2388 -0.0125,-0.36735 0.0484,-0.22459 0.0522,-0.22404 0.0984,0.0142 0.0593,0.30591 0.002,0.54041 -0.0858,0.35316 z m -19.49,8.7495 c -0.0517,-0.03515 -0.0536,-0.08296 -0.004,-0.10613 0.0493,-0.02317 0.10833,-0.0023 0.13126,0.04645 0.0229,0.04874 0.0249,0.09643 0.004,0.10613 -0.0205,0.0095 -0.0796,-0.0112 -0.13125,-0.04645 z m 19.204,-9.4752 c 0.005,-0.05845 0.0648,-0.13213 0.13186,-0.16368 0.067,-0.03152 0.0938,-0.11714 0.0594,-0.19022 -0.0344,-0.07306 -0.10284,-0.1139 -0.1521,-0.09071 -0.0493,0.02317 -0.0849,-0.0083 -0.0791,-0.06987 0.007,-0.07342 0.0601,-0.09717 0.1545,-0.06889 0.0792,0.02363 0.24102,0.06141 0.35967,0.08374 0.12674,0.02392 0.21042,0.09723 0.20287,0.17779 -0.009,0.10031 -0.0633,0.10834 -0.20098,0.0299 -0.16274,-0.09279 -0.18631,-0.08565 -0.17454,0.05285 0.007,0.08803 -0.0595,0.20184 -0.14893,0.25284 -0.0894,0.05099 -0.15805,0.04485 -0.15258,-0.01361 z m 0.26889,-0.84757 c -0.0434,-0.09223 -0.0615,-0.2691 -0.0402,-0.39315 0.0357,-0.20801 0.048,-0.20108 0.15885,0.08915 0.1251,0.32758 0.0196,0.59785 -0.11866,0.304 z m -0.46402,-0.54704 c -0.0412,-0.08765 -0.13823,-0.18386 -0.21548,-0.2137 -0.0773,-0.0298 -0.14788,-0.11024 -0.15694,-0.17866 -0.0267,-0.20223 0.39928,0.0103 0.51539,0.25708 0.0557,0.11832 0.0632,0.23303 0.0166,0.25492 -0.0465,0.02194 -0.11835,-0.03197 -0.1596,-0.11964 z m 0.20027,-0.33696 c -0.0494,-0.03361 -0.0852,-0.11129 -0.0793,-0.1726 0.0148,-0.15754 -0.58483,-1.4472 -0.80546,-1.7324 l -0.18405,-0.23796 0.2329,0.16089 c 0.1281,0.08848 0.32222,0.34722 0.4314,0.57498 0.1091,0.2278 0.25056,0.42116 0.3142,0.42978 0.0806,0.01088 0.10478,0.06218 0.0797,0.16902 -0.0198,0.08432 0.0358,0.27027 0.12354,0.41321 0.157,0.25578 0.0797,0.5262 -0.11287,0.39504 z m 0.25972,-0.44203 c -0.0229,-0.04874 0.0154,-0.11544 0.0852,-0.14828 0.0698,-0.03286 0.14557,-0.0203 0.16855,0.02893 0.0229,0.04874 -0.0154,0.11544 -0.0852,0.14828 -0.0698,0.03285 -0.14558,0.0203 -0.16856,-0.02893 z m -0.98929,0.09318 c -0.033,-0.0702 -0.0336,-0.17018 -0.001,-0.22218 0.0324,-0.05198 0.0974,-0.01244 0.14464,0.08784 0.0472,0.10031 0.0478,0.20029 0.001,0.22217 -0.0465,0.02184 -0.11162,-0.01766 -0.14465,-0.08784 z m -0.34678,-0.67626 c -0.22298,-0.145 -0.44701,-0.35207 -0.49786,-0.46012 -0.0508,-0.10806 -0.14721,-0.25988 -0.21412,-0.33739 -0.0669,-0.07755 0.005,-0.04214 0.15904,0.0786 0.1544,0.12074 0.31187,0.20486 0.34996,0.18695 0.0381,-0.01791 0.13547,0.10817 0.21642,0.28022 0.0924,0.19633 0.20335,0.30956 0.29804,0.30408 0.083,-0.0048 0.16762,0.02683 0.18809,0.07042 0.0826,0.17556 -0.11585,0.1268 -0.49957,-0.12273 z m -0.55,-1.587 c -0.23946,-0.28992 -0.25356,-0.38068 -0.0699,-0.45002 0.18642,-0.07037 0.27309,0.0034 0.17989,0.15316 -0.031,0.0497 -0.0107,0.1355 0.0451,0.1906 0.0557,0.05512 0.076,0.14081 0.0452,0.19043 -0.0309,0.04969 -0.12103,0.01135 -0.20021,-0.08417 z m 0.0277,-1.1207 c -0.0344,-0.07306 -0.0476,-0.1399 -0.0293,-0.1485 0.0183,-0.0082 0.0833,0.03382 0.14445,0.09431 0.0611,0.06051 0.0743,0.12732 0.0293,0.14852 -0.0451,0.02116 -0.11007,-0.02127 -0.14444,-0.09432 z m -1.6477,0.01547 c -0.14246,-0.0707 -0.14333,-0.08615 -0.005,-0.09413 0.0909,-0.0047 0.18184,0.02604 0.20231,0.06953 0.0536,0.11391 -0.003,0.12095 -0.19705,0.0244 z m -25.43,10.723 c -0.0229,-0.04874 -0.001,-0.10755 0.0479,-0.13073 0.0493,-0.02317 0.0848,0.0088 0.079,0.07098 -0.006,0.06222 -0.0274,0.12107 -0.0479,0.13072 -0.0205,0.0095 -0.0561,-0.02235 -0.079,-0.07098 z m 18.7,-9.7711 c -0.27428,0.02088 -1.0441,0.16342 -1.7106,0.31674 -1.5267,0.35117 -2.325,0.44177 -2.6235,0.29776 -0.26489,-0.1278 -0.50426,-0.55885 -0.40178,-0.72353 0.0484,-0.07775 0.0898,-0.02455 0.14336,0.1845 0.0908,0.35402 0.33556,0.45903 0.81503,0.34966 0.17961,-0.04096 0.44768,-0.06825 0.59571,-0.06065 0.14804,0.0076 0.53668,-0.05566 0.86362,-0.14069 0.32696,-0.08494 1.0771,-0.23918 1.6669,-0.34272 0.58984,-0.10356 1.0919,-0.1974 1.1158,-0.20859 0.0239,-0.01089 0.0714,0.03945 0.10583,0.11248 0.0756,0.16074 0.0583,0.16729 -0.5703,0.21517 z m -28.452002,-1.8951 c -0.16178,-0.14701 -0.3271,-0.25179 -0.36738,-0.23284 -0.04027,0.01898 -0.2024,-0.07516 -0.36028,-0.20914 -0.15788,-0.13397 -0.24866,-0.26165 -0.20173,-0.28374 0.04692,-0.02209 0.17088,0.04497 0.27546,0.14902 0.10458,0.10403 0.26365,0.22223 0.35349,0.26267 0.43688,0.19666 0.51952,0.25818 0.55562,0.41359 0.02724,0.11727 -0.04956,0.08725 -0.25518,-0.09956 z m -0.44914,0.06712 c -0.04452,-0.10508 -0.03432,-0.13552 0.02592,-0.0776 0.05451,0.05244 0.08746,0.13026 0.0732,0.17291 -0.01426,0.04268 -0.05884,-6.5e-5 -0.09912,-0.09535 z m -1.1715,0.01431 c -0.27743,-0.13759 -0.38955,-0.24866 -0.41307,-0.40922 -0.02515,-0.17197 -0.05538,-0.19554 -0.13742,-0.10728 -0.05881,0.06327 -0.15206,0.06669 -0.21166,0.0077 -0.06279,-0.06213 -0.05553,-0.12932 0.01771,-0.16378 0.06832,-0.03218 0.09499,-0.12059 0.05925,-0.19654 -0.03573,-0.07592 -0.02,-0.132 0.03501,-0.12456 0.05499,0.0075 0.11758,0.10258 0.13908,0.21142 0.02148,0.10883 0.07684,0.18011 0.12297,0.1584 0.04613,-0.02169 0.16298,0.06937 0.25966,0.20239 0.09668,0.13302 0.21956,0.22125 0.27306,0.19609 0.06264,-0.02949 0.03562,-0.1306 -0.07591,-0.28405 -0.13051,-0.17957 -0.13981,-0.24019 -0.03777,-0.24609 0.08314,-0.0048 0.17784,0.10533 0.24543,0.28542 0.06049,0.1613 0.13869,0.36496 0.17371,0.45261 0.09113,0.22816 -0.01671,0.23234 -0.45002,0.01747 z m 0.59951,-0.11478 c -0.02293,-0.04874 0.04426,-0.12826 0.14928,-0.17677 0.15434,-0.07149 0.17442,-0.06028 0.10448,0.05738 -0.11178,0.18814 -0.20154,0.23038 -0.25376,0.11945 z m -1.834,-0.7689 c -0.25366,-0.11144 -0.37873,-0.30604 -0.28918,-0.44995 0.03236,-0.05198 0.03069,-0.15433 -0.0037,-0.2274 -0.03438,-0.07306 -0.08943,-0.08968 -0.12231,-0.03684 -0.03288,0.05284 -0.02043,0.12289 0.02764,0.15565 0.0481,0.03276 0.03007,0.08656 -0.04009,0.11958 -0.07432,0.035 -0.35801,-0.13631 -0.67979,-0.41041 -0.30373,-0.25874 -0.59262,-0.46833 -0.64199,-0.46576 -0.04933,0.0028 -0.07196,-0.07121 -0.05021,-0.1639 0.03147,-0.13414 -0.01399,-0.16531 -0.22246,-0.1526 -0.14406,0.009 -0.28994,-0.04342 -0.3241,-0.11601 -0.03415,-0.07258 -0.26501,-0.26681 -0.51301,-0.4316 -0.248,-0.16478 -0.47668,-0.35439 -0.50817,-0.42132 -0.03149,-0.06695 -0.25323,-0.24178 -0.49275,-0.38854 -0.4773,-0.29245 -0.66182,-0.51395 -0.3561,-0.42747 0.09832,0.0278 0.2046,0.10548 0.23618,0.17258 0.03158,0.06714 0.09474,0.10446 0.14039,0.08303 0.04564,-0.02143 0.1517,0.04684 0.23569,0.15175 0.084,0.10493 0.21652,0.1871 0.29451,0.18258 0.07803,-0.0042 0.18035,0.07375 0.22748,0.17394 0.05366,0.11403 0.18208,0.17625 0.34352,0.1664 0.1926,-0.01179 0.26502,0.03339 0.28627,0.1784 0.01929,0.13191 0.07725,0.18263 0.18079,0.15827 0.16998,-0.04002 0.6922,0.46415 0.712,0.68736 0.0076,0.0853 0.06778,0.11753 0.14867,0.07953 0.07477,-0.03516 0.11608,-0.10612 0.09179,-0.15776 -0.02427,-0.0516 0.0033,-0.0874 0.0614,-0.07949 0.05803,0.0078 0.11162,0.08292 0.11906,0.16674 0.0085,0.09506 0.06473,0.12835 0.14946,0.0885 0.07477,-0.03516 0.15465,-0.0244 0.17761,0.02463 0.02293,0.04874 0.0011,0.10767 -0.04853,0.13102 -0.04962,0.02331 -0.02804,0.1433 0.04795,0.26659 0.10077,0.16356 0.19141,0.20378 0.33511,0.1488 0.2743,-0.10497 0.32654,-0.06596 0.35707,0.26676 0.01925,0.20962 0.06568,0.30493 0.16677,0.34223 0.1018,0.03756 0.11545,0.01892 0.04995,-0.06816 -0.04958,-0.06591 -0.06673,-0.14305 -0.03771,-0.17158 0.02885,-0.0284 0.06183,-0.03181 0.07325,-0.0077 0.01145,0.02432 0.06772,0.14393 0.12503,0.26572 0.1225,0.26034 0.05532,0.30371 -0.25754,0.16626 z" /><g
         id="g36"
         aria-label="Parasit'Lab"
         fill="#2e6b85"
         transform="matrix(0.26458,0,0,0.26458,-10.963,-93.049)" /><g
         inkscape:label="Calque 1"
         id="layer1"
         transform="matrix(0.13783451,0,0,0.13783451,19.436274,36.504549)"><g
           aria-label="A"
           transform="matrix(-0.8565209,-0.123065,0.09130999,-1.1543944,0,0)"
           id="text2985"
           style="line-height:0%;font-family:Christopherhand;-inkscape-font-specification:Christopherhand;letter-spacing:0px;word-spacing:0px;fill:#46626a"><path
             d="m -187.02641,-252.94694 q 20.62076,0 35.56334,45.27601 l 1.64368,1.34483 v 1.34484 l -1.64368,7.91956 q 4.33334,0 7.77014,14.64373 6.12645,4.03449 13.89659,4.03449 l 1.49426,1.34484 v 1.34483 q 0,2.68966 -7.62071,2.68966 v 1.19541 l 2.98851,10.75865 -1.49426,-1.34483 h -1.49425 v 2.68967 h 1.49425 l 1.49426,-1.34484 h 1.64369 q 1.7931,11.95407 4.63219,11.95407 l -1.64368,1.34483 v 2.68966 h 1.64368 v -2.68966 h 2.98852 l 6.27588,15.98856 -1.49426,1.34483 q 4.0345,0 7.62072,6.57473 l -1.49426,1.34483 v 1.34484 q 9.2644,8.96554 9.2644,20.02305 l -7.77014,10.60923 h -2.98852 q -21.36788,-5.379328 -21.66673,-9.264398 13.89659,-2.988512 13.89659,-5.379332 0,-5.08047 -27.79319,-58.5749 -2.39081,0 -4.6322,-5.37933 -9.41382,0 -9.41382,4.0345 l -1.49426,-1.34483 h -1.49426 l -6.27588,5.37932 -1.49426,-1.34483 h -1.49426 q -13.44832,2.68967 -21.66673,7.91957 l -4.6322,-1.34483 q -2.54024,3.58622 -20.17248,10.75865 l -7.77014,19.87363 1.64368,1.34483 h 1.49426 l -4.6322,8.06899 1.49426,1.34484 v 1.34483 q -4.6322,18.080517 -9.2644,22.56329 0,3.88507 -2.98852,3.88507 l 4.6322,21.367886 -7.77014,4.034496 q -12.40234,-1.04598 -12.40234,-9.413824 0,-13.597745 7.77014,-42.436918 -30.93113,-2.24139 -30.93113,-17.33339 v -2.68967 q 11.50578,-8.06899 44.82773,-24.05755 28.54032,-95.78192 49.45993,-95.78192 z m 3.13794,15.98856 -18.52879,23.90812 1.49425,1.34484 v 1.34483 l -1.49425,1.34483 h -1.64369 l -1.49426,-1.34483 v 1.34483 l 1.49426,5.37933 h -1.49426 l 1.49426,1.34483 v 2.54024 l -2.98851,2.68966 v -6.57473 h -1.64369 l -4.6322,14.64372 v 1.34484 h 1.64369 v -2.68967 h 1.49426 v 2.68967 q -1.49426,7.91956 -4.6322,7.91956 l -1.49426,-1.34483 1.49426,9.2644 v 6.72416 l 23.16099,-6.72416 1.64369,1.34483 h 1.49425 l 21.66674,-6.57473 4.6322,1.34483 1.49426,-1.34483 1.49426,1.34483 1.64368,-1.34483 v -1.34484 q 0,-11.35635 -24.80468,-58.5749 z m -69.63241,110.42565 v 2.68966 h 7.77014 l 1.49426,-7.91956 h -1.49426 z"
             style="font-size:306.024px;line-height:1.25"
             id="path918" /></g><g
           aria-label="Antikor "
           id="text2992"
           style="line-height:0%;font-family:'Times Sans Serif';-inkscape-font-specification:'Times Sans Serif';letter-spacing:0px;word-spacing:0px;fill:#46626a"><path
             d="m 290.11761,109.23415 h 2.57652 l 45.86199,102.10365 h -18.62454 l -3.16543,-8.53931 q -0.5153,-1.4723 -4.34327,-10.52691 l -6.03641,-14.35488 h -38.64774 l -14.42849,33.4211 h -7.43509 z m 14.20765,63.23506 -16.93139,-40.34088 -17.37308,40.34088 z"
             style="font-size:150.763px;line-height:1.25"
             id="path921" /><path
             d="m 370.65215,156.20035 q 11.85197,-14.28126 22.59973,-14.28126 11.41028,0 15.82717,11.85198 1.61952,4.34327 1.61952,13.54511 v 28.78337 l 0.0736,15.23825 h -12.22005 v -42.84378 q 0,-17.52031 -10.4533,-17.52031 -8.76015,0 -17.44669,9.56991 l -0.0736,50.79418 h -12.07281 v -40.26727 l 0.0736,-29.15144 h 12.07282 z"
             style="font-size:150.763px;line-height:1.25"
             id="path923" /><path
             d="m 445.96004,121.74865 v 22.15804 h 15.75356 v 5.15303 h -15.75356 v 43.72716 q 0,11.11583 6.69894,11.11583 5.74195,0 8.24486,-5.96279 h 2.87097 q -5.15303,14.5021 -17.00501,14.5021 -8.17123,0 -11.41028,-7.28786 -1.54591,-3.45989 -1.54591,-10.74775 v -45.34669 h -10.67414 v -5.15303 h 10.60052 v -22.15804 z"
             style="font-size:150.763px;line-height:1.25"
             id="path925" /><path
             d="m 485.41753,106.65763 q 3.09182,0 5.22665,2.20844 2.20844,2.13483 2.20844,5.22665 0,3.09182 -2.20844,5.30026 -2.13483,2.20844 -5.22665,2.20844 -3.09181,0 -5.30026,-2.20844 -2.20844,-2.20844 -2.20844,-5.30026 0,-3.16543 2.13483,-5.30026 2.20844,-2.13483 5.37387,-2.13483 z m 6.11003,35.26146 0.0736,69.41871 -12.29366,0.22084 v -69.93401 l 8.981,0.29446 z"
             style="font-size:150.763px;line-height:1.25"
             id="path927" /><path
             d="m 530.10171,106.65763 v 67.13665 l 31.50711,-29.81397 h 8.24485 l -27.75276,26.13323 33.20025,41.4451 h -14.20765 l -30.9918,-37.76436 0.0736,37.54352 h -12.29366 v -14.79656 l -0.0736,-89.66277 z"
             style="font-size:150.763px;line-height:1.25"
             id="path929" /><path
             d="m 618.51299,141.91909 q 15.31186,0 24.58732,11.63113 7.87678,9.93799 7.87678,22.82057 0,9.34908 -4.26966,18.18285 -4.4905,9.4963 -12.07282,14.20764 -7.58231,4.63773 -16.93139,4.63773 -15.23825,0 -24.21925,-12.14643 -7.58232,-10.23245 -7.58232,-22.9678 0,-9.27546 4.41689,-18.10923 4.71134,-9.42269 12.22005,-13.83957 7.58231,-4.41689 15.9744,-4.41689 z m -2.28206,4.78496 q -9.86438,0 -14.20765,10.4533 -2.42928,5.81556 -2.42928,14.94379 0,12.51451 4.49049,22.74696 5.81557,13.32426 16.78417,13.32426 16.41609,0 16.41609,-26.13323 0,-17.88838 -7.72955,-28.26806 -5.30026,-7.06702 -13.32427,-7.06702 z"
             style="font-size:150.763px;line-height:1.25"
             id="path931" /><path
             d="m 680.64386,142.50801 v 14.57572 q 8.4657,-14.57572 16.78416,-14.42849 6.69895,0.29446 10.01161,10.67414 l -5.37388,4.12242 q -2.28205,-4.34327 -4.78496,-5.74195 -2.5029,-1.39868 -5.37387,-0.58891 -2.79736,0.73614 -4.41689,2.20844 -3.38628,3.09182 -6.84617,9.93799 v 32.31687 l -0.14723,15.4591 h -11.92559 l -0.0736,-14.87018 v -26.13323 q 0,-10.08522 0,-27.38469 z"
             style="font-size:150.763px;line-height:1.25"
             id="path933" /></g><g
           aria-label="vétérinaires"
           transform="scale(1.0409336,0.96067607)"
           id="text2998"
           style="line-height:0%;font-family:'Times Sans Serif';-inkscape-font-specification:'Times Sans Serif';letter-spacing:0px;word-spacing:0px;fill:#2ea0a9"><path
             d="m 211.66753,279.73007 h 6.422 l 9.65017,23.9022 9.40977,-23.9022 2.78172,-0.0343 -13.18742,32.45341 h -1.40803 z"
             style="font-size:70.3329px;line-height:1.25;letter-spacing:12.3193px"
             id="path936" /><path
             d="m 262.99961,291.57814 q -0.0343,5.83818 2.71303,10.06228 3.19383,4.91094 8.75728,4.91094 6.38765,0 9.20371,-7.52095 l 1.06461,0.68684 q -0.78987,5.08265 -4.22409,8.61991 -3.67462,3.81198 -8.65424,3.81198 -6.422,0 -10.26833,-5.04831 -3.46857,-4.60185 -3.46857,-11.22991 0,-7.24621 3.57159,-11.91675 3.94936,-5.18568 10.95518,-5.18568 5.56344,0 8.86029,3.67462 3.22817,3.53725 3.22817,9.13503 z m 0,-1.99185 h 14.56111 q -0.17171,-3.02211 -0.72119,-4.25843 -1.82014,-4.12107 -6.11292,-4.12107 -3.29685,0 -5.46041,2.61001 -1.92317,2.33527 -2.26659,5.76949 z m 16.38125,-26.13444 -10.13096,11.84807 h -1.16764 l 3.60593,-11.84807 z"
             style="font-size:70.3329px;line-height:1.25;letter-spacing:12.3193px"
             id="path938" /><path
             d="m 310.38233,269.39306 v 10.33701 h 7.34924 v 2.40396 h -7.34924 v 20.39929 q 0,5.18568 3.12514,5.18568 2.6787,0 3.84633,-2.78173 h 1.33935 q -2.40395,6.76542 -7.93305,6.76542 -3.81199,0 -5.32305,-3.39988 -0.72119,-1.61408 -0.72119,-5.01396 v -21.15482 h -4.97962 v -2.40396 h 4.94528 v -10.33701 z"
             style="font-size:70.3329px;line-height:1.25;letter-spacing:12.3193px"
             id="path940" /><path
             d="m 338.39603,291.57814 q -0.0343,5.83818 2.71304,10.06228 3.19383,4.91094 8.75727,4.91094 6.38765,0 9.20372,-7.52095 l 1.06461,0.68684 q -0.78987,5.08265 -4.2241,8.61991 -3.67462,3.81198 -8.65424,3.81198 -6.422,0 -10.26833,-5.04831 -3.46857,-4.60185 -3.46857,-11.22991 0,-7.24621 3.5716,-11.91675 3.94935,-5.18568 10.95517,-5.18568 5.56344,0 8.8603,3.67462 3.22817,3.53725 3.22817,9.13503 z m 0,-1.99185 h 14.56111 q -0.17171,-3.02211 -0.72119,-4.25843 -1.82014,-4.12107 -6.11292,-4.12107 -3.29685,0 -5.46041,2.61001 -1.92317,2.33527 -2.26659,5.76949 z m 16.38125,-26.13444 -10.13096,11.84807 h -1.16764 l 3.60594,-11.84807 z"
             style="font-size:70.3329px;line-height:1.25;letter-spacing:12.3193px"
             id="path942" /><path
             d="m 385.84744,279.07757 v 6.79976 q 3.94936,-6.79976 7.83003,-6.73108 3.12514,0.13737 4.67054,4.97963 l -2.50698,1.92316 q -1.06461,-2.02619 -2.23225,-2.67869 -1.16763,-0.6525 -2.50698,-0.27474 -1.305,0.34342 -2.06053,1.03027 -1.57975,1.44237 -3.19383,4.6362 v 15.07624 l -0.0687,7.21187 h -5.56344 l -0.0343,-6.93713 v -12.19149 q 0,-4.70489 0,-12.77532 z"
             style="font-size:70.3329px;line-height:1.25;letter-spacing:12.3193px"
             id="path944" /><path
             d="m 420.38617,262.3529 q 1.44237,0 2.4383,1.03027 1.03026,0.99592 1.03026,2.4383 0,1.44237 -1.03026,2.47264 -0.99593,1.03026 -2.4383,1.03026 -1.44238,0 -2.47264,-1.03026 -1.03027,-1.03027 -1.03027,-2.47264 0,-1.47672 0.99592,-2.47264 1.03027,-0.99593 2.50699,-0.99593 z m 2.8504,16.44993 0.0344,32.38473 -5.73516,0.10303 v -32.62513 l 4.18976,0.13737 z"
             style="font-size:70.3329px;line-height:1.25;letter-spacing:12.3193px"
             id="path946" /><path
             d="m 453.41383,285.46523 q 5.52911,-6.6624 10.54307,-6.6624 5.32305,0 7.38358,5.5291 0.75553,2.02619 0.75553,6.31897 v 13.42782 l 0.0343,7.10884 h -5.70081 v -19.98718 q 0,-8.17345 -4.87659,-8.17345 -4.08673,0 -8.13912,4.46449 l -0.0343,23.69614 h -5.63212 v -18.7852 l 0.0343,-13.59953 h 5.63212 z"
             style="font-size:70.3329px;line-height:1.25;letter-spacing:12.3193px"
             id="path948" /><path
             d="m 509.55384,306.65439 q -4.8766,3.77764 -6.07857,4.32712 -1.85448,0.85855 -3.94936,0.85855 -3.43422,0 -5.49476,-2.36961 -1.99185,-2.26659 -1.99185,-5.73515 0,-4.8766 5.94121,-8.37951 3.46856,-2.06053 11.57333,-5.01397 v -1.23632 q 0,-3.84633 -0.99592,-5.70081 -1.37369,-2.50698 -3.9837,-2.81606 -2.61001,-0.30908 -5.01397,0.72119 -2.40396,1.03026 -2.47264,5.73515 h -2.54133 q 0.10303,-5.22002 2.74738,-6.73108 2.6787,-1.5454 7.45227,-1.51106 7.86437,0 9.85622,4.73923 0.61816,1.47672 0.61816,6.04423 v 10.68044 l 0.20605,11.50465 h -5.73515 z m 0,-2.23225 V 292.4367 q -5.11699,2.02619 -6.69673,2.91909 -5.04831,2.81606 -5.04831,6.76542 0,2.23225 1.305,3.91502 1.40803,1.82013 3.57159,1.82013 2.61001,0 6.86845,-3.43422 z"
             style="font-size:70.3329px;line-height:1.25;letter-spacing:12.3193px"
             id="path950" /><path
             d="m 543.26834,262.3529 q 1.44237,0 2.4383,1.03027 1.03027,0.99592 1.03027,2.4383 0,1.44237 -1.03027,2.47264 -0.99593,1.03026 -2.4383,1.03026 -1.44237,0 -2.47264,-1.03026 -1.03027,-1.03027 -1.03027,-2.47264 0,-1.47672 0.99593,-2.47264 1.03026,-0.99593 2.50698,-0.99593 z m 2.85041,16.44993 0.0343,32.38473 -5.73516,0.10303 v -32.62513 l 4.18976,0.13737 z"
             style="font-size:70.3329px;line-height:1.25;letter-spacing:12.3193px"
             id="path952" /><path
             d="m 576.33036,279.07757 v 6.79976 q 3.94936,-6.79976 7.83003,-6.73108 3.12515,0.13737 4.67055,4.97963 l -2.50699,1.92316 q -1.0646,-2.02619 -2.23224,-2.67869 -1.16764,-0.6525 -2.50698,-0.27474 -1.30501,0.34342 -2.06054,1.03027 -1.57974,1.44237 -3.19383,4.6362 v 15.07624 l -0.0687,7.21187 h -5.56344 l -0.0343,-6.93713 v -12.19149 q 0,-4.70489 0,-12.77532 z"
             style="font-size:70.3329px;line-height:1.25;letter-spacing:12.3193px"
             id="path954" /><path
             d="m 608.15604,291.57814 q -0.0343,5.83818 2.71304,10.06228 3.19383,4.91094 8.75727,4.91094 6.38765,0 9.20372,-7.52095 l 1.06461,0.68684 q -0.78987,5.08265 -4.2241,8.61991 -3.67462,3.81198 -8.65424,3.81198 -6.422,0 -10.26833,-5.04831 -3.46857,-4.60185 -3.46857,-11.22991 0,-7.24621 3.5716,-11.91675 3.94935,-5.18568 10.95517,-5.18568 5.56344,0 8.8603,3.67462 3.22817,3.53725 3.22817,9.13503 z m 0,-1.99185 h 14.56111 q -0.17171,-3.02211 -0.72119,-4.25843 -1.82014,-4.12107 -6.11292,-4.12107 -3.29685,0 -5.46041,2.61001 -1.92317,2.33527 -2.26659,5.76949 z"
             style="font-size:70.3329px;line-height:1.25;letter-spacing:12.3193px"
             id="path956" /><path
             d="m 665.42934,288.52168 q -0.85855,-5.08265 -3.39988,-6.55936 -2.40395,-1.44238 -4.97962,-1.33935 -2.19791,0.10303 -3.84633,1.40803 -1.82014,1.47672 -1.82014,3.57159 0,1.47672 1.03027,2.74738 0.78987,0.85856 2.50698,2.06054 1.71711,1.16763 4.46449,2.64435 1.92316,1.03027 3.15949,1.71711 1.23632,0.68685 1.75145,1.06461 2.74738,1.88882 3.81199,3.9837 0.8929,1.75145 0.8929,3.67462 0,3.9837 -3.09081,6.59371 -2.88474,2.33527 -7.04015,2.33527 -1.40804,0 -2.54133,-0.10303 -1.47672,-0.20605 -3.29685,-1.03026 -0.85856,-0.41211 -1.71712,-1.20198 -0.85855,-0.82421 -1.71711,-2.09488 -1.71711,-2.4383 -1.71711,-6.73108 h 1.47672 q 0,3.29686 0.82421,4.8766 0.58382,0.99593 1.44237,1.85448 0.85856,0.85856 2.06054,1.44238 2.09487,1.16763 4.67054,1.16763 1.30501,0 2.40396,-0.34342 1.09895,-0.34342 1.99185,-0.99592 1.99185,-1.40804 1.99185,-3.94936 0,-2.61001 -2.64435,-4.6362 -0.82422,-0.65251 -2.19791,-1.47672 -1.33934,-0.82421 -3.22817,-1.85448 -1.88882,-0.99593 -3.26251,-1.85448 -1.37369,-0.85856 -2.23224,-1.5454 -1.82014,-1.40803 -2.6787,-3.05646 -0.85856,-1.64843 -0.85856,-3.60594 0,-3.77764 2.85041,-6.1816 2.71304,-2.30093 6.55937,-2.30093 2.16356,0.13737 3.70896,0.54948 1.5454,0.4121 2.40396,1.16763 1.78579,1.40804 2.57566,3.19383 0.51514,1.1333 0.78987,2.33527 0.27474,1.20198 0.34343,2.47264 z"
             style="font-size:70.3329px;line-height:1.25;letter-spacing:12.3193px"
             id="path958" /></g><g
           aria-label="scop"
           id="text3164"
           style="font-size:40px;font-family:Roboto;-inkscape-font-specification:Roboto;text-orientation:upright;opacity:0.747618;fill:#e9d45d;stroke:#46626a;stroke-width:0.9375"><path
             d="m 216.58466,241.50555 q 0.33203,-1.93359 -2.51954,-2.67578 -2.83203,-0.76172 -3.86718,-1.21093 -4.02344,-1.71875 -3.88672,-5.23438 0.0977,-2.85156 2.57812,-4.70703 2.5,-1.875 5.97657,-1.83594 3.35937,0.0391 5.46875,1.89453 2.1289,1.85547 2.08984,4.86328 l -4.58984,-0.0195 q 0.0391,-1.46484 -0.80079,-2.28515 -0.83984,-0.83985 -2.30468,-0.87891 -1.54297,0 -2.65625,0.76172 -1.09375,0.76172 -1.26953,1.99219 -0.27344,1.77734 2.5,2.48047 2.77343,0.68359 4.10156,1.26953 3.86719,1.69922 3.73047,5.3125 -0.0977,2.01172 -1.32813,3.51562 -1.21094,1.48438 -3.26172,2.28516 -2.05078,0.78125 -4.35547,0.72265 -3.45703,-0.0391 -5.74218,-2.01171 -2.26563,-1.97266 -2.22657,-5.0586 l 4.47266,0.0195 q 0.0391,1.69922 1.01563,2.57813 0.97656,0.8789 2.67578,0.89844 1.71875,0 2.85156,-0.70313 1.15234,-0.72266 1.34766,-1.97266 z"
             style="font-style:italic;font-weight:500;-inkscape-font-specification:'Roboto Medium Italic'"
             id="path961" /><path
             d="m 233.38153,243.98602 q 1.66016,0.0391 2.92969,-0.95703 1.28906,-1.01562 1.64062,-2.63672 l 4.375,-0.0195 q -0.21484,2.08985 -1.52343,3.8086 -1.28907,1.71875 -3.32032,2.67578 -2.03125,0.95703 -4.23828,0.89843 -2.71484,-0.0391 -4.6289,-1.40625 -1.91407,-1.36718 -2.79297,-3.76953 -0.87891,-2.42187 -0.58594,-5.39062 l 0.0586,-0.6836 q 0.33203,-3.0664 1.77735,-5.54687 1.46484,-2.5 3.76953,-3.84766 2.30469,-1.34765 5.11719,-1.26953 3.4375,0.0781 5.48828,2.28516 2.05078,2.1875 2.05078,5.70312 h -4.33594 q 0,-1.8164 -0.89844,-2.96875 -0.8789,-1.15234 -2.55859,-1.23047 -2.71484,-0.0781 -4.27734,2.30469 -1.5625,2.38281 -1.67969,6.71875 -0.13672,5.25391 3.63281,5.33203 z"
             style="font-style:italic;font-weight:500;-inkscape-font-specification:'Roboto Medium Italic'"
             id="path963" /><path
             d="m 245.78387,236.7204 q 0.33204,-3.10547 1.81641,-5.64453 1.50391,-2.53907 3.84766,-3.92578 2.34375,-1.38672 5.19531,-1.3086 2.71484,0.0391 4.6875,1.44531 1.97266,1.40625 2.87109,3.84766 0.91797,2.44141 0.64453,5.42969 -0.3125,3.35937 -1.83593,5.9375 -1.50391,2.57812 -3.86719,3.96484 -2.34375,1.36719 -5.21484,1.28906 -2.69532,-0.0391 -4.66797,-1.42578 -1.95313,-1.40625 -2.8711,-3.82812 -0.91797,-2.44141 -0.66406,-5.3711 z m 4.55079,2.67578 q 0.0976,2.05078 1.07421,3.30078 0.9961,1.23047 2.75391,1.28906 2.38281,0.0586 3.98438,-1.83593 1.62109,-1.89454 2.03125,-5.17579 l 0.11718,-1.91406 q 0,-2.5 -0.99609,-3.92578 -0.99609,-1.42578 -2.89063,-1.50391 -2.96875,-0.0781 -4.6875,2.91016 -1.03515,1.81641 -1.30859,4.17969 -0.15625,1.64062 -0.0781,2.67578 z"
             style="font-style:italic;font-weight:500;-inkscape-font-specification:'Roboto Medium Italic'"
             id="path965" /><path
             d="m 286.74091,236.87665 q -0.39063,3.16406 -1.69922,5.74219 -1.28907,2.57812 -3.30078,3.90625 -1.99219,1.30859 -4.47266,1.25 -3.30078,-0.0781 -5.19531,-2.34375 l -1.89453,10.05859 h -4.64844 l 5.07812,-29.25781 4.23828,-0.0195 -0.35156,2.1875 q 2.42188,-2.63672 5.76172,-2.5586 2.01172,0.0195 3.49609,1.03516 1.48438,0.99609 2.26563,2.91015 0.80078,1.91407 0.85937,4.25782 0.0195,1.1914 -0.13671,2.83203 z m -4.57032,-0.41016 0.0977,-1.42578 q 0.0586,-2.51953 -0.83984,-3.90625 -0.87891,-1.38672 -2.65625,-1.42578 -2.61719,-0.0781 -4.53125,2.40234 l -1.64063,9.4336 q 0.87891,2.36328 3.57422,2.4414 2.30469,0.0586 3.86719,-1.79687 1.58203,-1.85547 2.1289,-5.72266 z"
             style="font-style:italic;font-weight:500;-inkscape-font-specification:'Roboto Medium Italic'"
             id="path967" /></g></g></g></g></svg>
